{"glyphs":{"0":{"ha":743,"x_min":35,"x_max":722,"o":"m 628 115 q 582 51 628 115 q 378 -14 535 -14 q 128 115 221 -14 q 35 460 35 243 q 128 806 35 678 q 378 935 221 935 q 628 806 535 935 q 722 460 722 678 q 628 115 722 244 m 572 438 q 552 620 572 533 q 486 769 532 707 q 379 832 440 832 q 240 735 294 832 q 185 500 185 639 q 205 306 185 397 q 270 152 225 215 q 378 89 315 89 q 519 189 465 89 q 572 438 572 289 z "},"1":{"ha":743,"x_min":158,"x_max":622,"o":"m 478 94 q 617 100 576 94 q 622 63 622 81 q 568 -3 622 -3 q 476 -1 558 -3 q 332 0 393 0 q 169 -1 213 0 q 163 40 163 24 q 243 99 163 99 l 332 99 q 333 246 332 124 q 335 469 335 368 q 331 819 335 665 q 163 799 183 803 q 158 836 158 819 q 213 911 158 901 q 418 935 363 935 q 460 919 442 935 q 479 869 479 904 q 474 701 479 867 q 468 410 468 536 q 478 94 468 179 z "},"2":{"ha":743,"x_min":54,"x_max":689,"o":"m 144 711 q 94 734 113 715 q 76 779 76 753 q 168 884 76 833 q 365 935 260 935 q 562 868 479 935 q 644 681 644 801 q 618 535 644 604 q 529 394 592 467 q 402 261 467 321 q 222 107 338 201 q 331 106 249 106 q 538 113 472 106 q 669 144 604 119 q 689 74 689 103 q 654 17 689 31 q 424 -3 600 -3 q 121 0 208 -3 q 54 65 54 0 q 56 85 54 79 q 408 434 317 318 q 500 654 500 550 q 453 782 500 735 q 340 829 407 829 q 233 797 286 829 q 144 711 179 764 z "},"3":{"ha":743,"x_min":76,"x_max":642,"o":"m 454 506 q 603 406 564 464 q 642 264 642 347 q 550 69 642 151 q 297 -14 458 -14 q 138 10 199 -14 q 76 76 76 35 q 94 122 76 104 q 142 144 113 140 q 293 89 185 89 q 440 142 388 89 q 492 265 492 196 q 428 392 492 339 q 253 444 365 444 q 230 446 238 444 q 215 453 222 447 q 204 471 207 458 q 201 504 201 483 q 203 528 201 518 q 397 578 332 528 q 463 696 463 628 q 426 790 463 750 q 331 831 390 831 q 240 803 285 831 q 168 722 194 775 q 116 742 136 722 q 96 790 96 763 q 176 886 96 838 q 357 935 257 935 q 545 872 478 935 q 613 721 613 808 q 574 596 613 654 q 454 506 535 538 z "},"4":{"ha":743,"x_min":51,"x_max":735,"o":"m 457 758 q 193 390 324 596 q 319 386 254 386 q 454 390 389 386 q 457 758 454 539 m 450 918 q 547 935 476 935 q 600 932 567 935 q 597 872 600 928 q 591 719 594 817 q 588 515 588 621 l 588 394 q 724 418 690 403 q 735 354 735 388 q 707 294 735 306 q 586 279 674 281 q 615 -3 586 82 q 540 -14 585 -14 q 470 4 489 -14 q 451 65 451 22 q 454 278 451 119 q 83 288 161 278 q 51 351 51 292 q 54 394 51 372 q 251 681 114 497 q 450 918 389 864 z "},"5":{"ha":743,"x_min":79,"x_max":649,"o":"m 519 797 q 265 806 411 797 l 246 597 q 343 606 297 606 q 571 526 493 606 q 649 317 649 446 q 556 81 649 175 q 303 -14 464 -14 q 138 12 196 -14 q 79 76 79 38 q 144 144 79 132 q 290 89 188 89 q 444 151 389 89 q 499 297 499 214 q 435 445 499 383 q 260 507 371 507 q 150 500 203 507 q 136 567 136 514 q 154 922 136 588 q 447 919 197 919 q 611 931 551 919 q 625 872 625 906 q 519 797 625 797 z "},"6":{"ha":743,"x_min":75,"x_max":683,"o":"m 383 453 q 225 371 301 453 q 234 267 226 313 q 258 179 242 222 q 308 113 275 136 q 389 90 342 90 q 495 143 457 90 q 533 269 533 196 q 491 403 533 353 q 383 453 449 453 m 378 -14 q 231 19 293 -14 q 137 111 169 53 q 90 236 104 169 q 75 382 75 303 q 127 646 75 522 q 289 852 179 769 q 543 935 399 935 q 604 874 604 935 q 597 824 604 861 q 538 829 569 829 q 319 722 403 829 q 226 461 236 614 q 435 557 311 557 q 610 484 538 557 q 683 292 683 411 q 600 79 683 172 q 378 -14 517 -14 z "},"7":{"ha":743,"x_min":63,"x_max":681,"o":"m 82 44 q 327 397 194 163 q 526 803 460 632 q 168 797 326 797 q 63 872 63 797 q 76 931 63 896 q 236 919 146 919 q 669 922 596 919 q 681 871 681 900 q 672 818 681 843 q 524 502 647 744 q 301 82 400 260 q 189 -14 249 -14 q 82 44 133 -14 z "},"8":{"ha":743,"x_min":65,"x_max":685,"o":"m 506 729 q 467 803 506 774 q 374 832 428 832 q 281 803 319 832 q 243 729 243 774 q 281 628 243 669 q 392 553 318 588 q 506 729 506 607 m 256 135 q 278 112 256 135 q 374 89 300 89 q 491 135 447 89 q 535 244 535 182 q 490 363 535 318 q 342 454 446 407 q 241 366 271 411 q 211 244 211 321 q 256 135 211 182 m 604 62 q 564 23 604 62 q 375 -15 524 -15 q 146 62 226 -15 q 65 246 65 139 q 251 499 65 408 q 101 729 101 593 q 181 878 101 821 q 374 936 261 936 q 567 878 486 936 q 647 729 647 821 q 494 521 647 592 q 685 246 685 422 q 604 62 685 139 z "},"9":{"ha":743,"x_min":64,"x_max":672,"o":"m 364 468 q 522 550 446 468 q 513 653 521 608 q 489 742 506 699 q 439 808 472 785 q 358 831 406 831 q 252 778 290 831 q 214 651 214 725 q 256 518 214 568 q 364 468 299 468 m 369 935 q 516 901 454 935 q 610 810 578 868 q 658 685 643 751 q 672 539 672 618 q 620 275 672 399 q 458 69 568 151 q 204 -14 349 -14 q 143 47 143 -14 q 150 97 143 60 q 210 92 178 92 q 428 199 344 92 q 521 460 511 307 q 313 364 436 364 q 137 437 210 364 q 64 629 64 510 q 147 842 64 749 q 369 935 231 935 z "}," ":{"ha":299,"x_min":0,"x_max":0,"o":""},"!":{"ha":428,"x_min":118,"x_max":322,"o":"m 222 183 q 293 156 264 183 q 322 85 322 128 q 292 15 322 43 q 219 -14 261 -14 q 150 15 179 -14 q 121 85 121 43 q 151 155 121 126 q 222 183 182 183 m 300 888 q 288 723 299 835 q 276 535 276 611 q 297 324 276 379 q 225 306 257 306 q 146 375 147 306 q 144 524 144 418 q 142 694 143 629 q 135 835 140 758 q 118 953 129 911 q 214 964 179 964 q 300 888 300 964 z "},"\"":{"ha":549,"x_min":58,"x_max":501,"o":"m 333 965 q 359 1007 333 992 q 422 1022 385 1022 q 478 1006 456 1022 q 501 956 501 990 q 475 717 501 894 q 400 654 461 654 q 349 663 378 654 q 353 721 353 688 q 343 879 353 807 q 333 965 333 951 m 58 965 q 84 1007 58 992 q 147 1022 110 1022 q 203 1006 181 1022 q 226 956 226 990 q 200 717 226 894 q 125 654 186 654 q 74 663 103 654 q 78 721 78 688 q 68 879 78 807 q 58 965 58 951 z "},"#":{"ha":743,"x_min":-4,"x_max":753,"o":"m 318 635 l 478 635 q 488 735 478 640 q 500 860 499 829 q 540 865 518 865 q 597 813 597 865 q 568 638 597 789 q 749 646 650 639 q 753 603 753 628 q 683 532 753 532 q 550 539 640 532 l 526 376 q 711 388 629 381 q 714 339 714 363 q 643 274 714 274 q 513 281 589 274 q 501 139 501 147 q 506 54 501 89 q 453 39 476 39 q 404 93 404 39 q 429 285 404 138 l 264 285 q 251 144 251 147 q 256 54 251 97 q 203 39 228 39 q 154 93 154 39 q 179 282 154 121 q 6 251 94 278 q -4 313 -4 286 q 106 378 -4 378 l 196 378 l 218 540 q 43 510 126 535 q 32 572 32 549 q 140 636 32 636 l 229 635 q 250 860 250 857 q 293 865 271 865 q 347 813 347 865 q 318 635 347 775 m 276 375 l 444 375 l 467 543 l 303 543 l 276 375 z "},"$":{"ha":743,"x_min":49,"x_max":678,"o":"m 326 -71 l 326 -14 q 132 30 215 -11 q 49 126 49 71 q 129 221 49 183 q 208 140 153 174 q 326 97 264 106 l 326 386 q 233 420 271 403 q 154 469 194 438 q 93 553 114 501 q 72 675 72 604 q 142 847 72 782 q 325 929 213 913 q 319 1022 322 1006 q 351 1026 340 1026 q 403 989 403 1026 l 403 935 q 576 895 496 932 q 657 797 657 858 q 563 706 657 725 q 500 783 544 750 q 403 825 456 815 l 403 540 q 483 517 454 526 q 554 486 511 507 q 620 441 597 465 q 660 377 643 417 q 678 286 678 338 q 601 74 678 146 q 404 -10 525 3 q 410 -106 407 -83 l 382 -108 q 326 -71 326 -108 m 550 244 q 513 319 550 293 q 403 364 475 344 l 403 99 q 509 143 468 107 q 550 244 550 179 m 200 690 q 233 613 200 642 q 326 564 265 583 l 326 825 q 235 783 269 817 q 200 690 200 749 z "},"%":{"ha":1138,"x_min":58,"x_max":1079,"o":"m 864 -14 q 706 50 764 -14 q 647 222 647 114 q 706 394 647 331 q 864 457 764 457 q 1021 394 963 457 q 1079 222 1079 331 q 1021 50 1079 114 q 864 -14 963 -14 m 944 213 q 923 322 944 274 q 864 369 901 369 q 803 331 826 369 q 779 236 779 293 q 801 124 779 174 q 863 75 822 75 q 922 114 900 75 q 944 213 944 153 m 329 -46 q 229 10 229 -31 q 240 43 229 26 l 649 690 q 814 967 740 835 q 911 908 911 960 q 901 878 911 893 l 494 231 q 329 -46 401 83 m 275 453 q 117 517 175 453 q 58 689 58 581 q 117 860 58 797 q 275 924 175 924 q 432 860 374 924 q 490 689 490 797 q 432 517 490 581 q 275 453 374 453 m 356 679 q 334 788 356 740 q 275 836 313 836 q 214 798 238 836 q 190 703 190 760 q 212 591 190 640 q 274 542 233 542 q 333 581 311 542 q 356 679 356 619 z "},"&":{"ha":876,"x_min":58,"x_max":840,"o":"m 444 728 q 421 809 444 775 q 349 843 397 843 q 243 732 243 843 q 317 551 243 672 q 412 633 379 593 q 444 728 444 674 m 269 396 q 206 254 206 329 q 256 132 206 178 q 389 86 307 86 q 499 118 450 86 q 269 396 393 225 m 726 332 q 682 154 726 232 q 838 99 768 99 q 840 64 840 82 q 810 8 840 31 q 717 -14 781 -14 q 579 46 661 -14 q 369 -14 486 -14 q 151 52 243 -14 q 58 235 58 118 q 99 375 58 318 q 210 482 139 432 q 143 588 178 529 q 110 719 110 643 q 181 876 110 818 q 364 935 253 935 q 522 883 465 935 q 579 758 579 831 q 561 663 579 707 q 505 582 543 619 q 441 525 467 544 q 368 474 415 506 q 579 233 461 339 q 589 311 589 275 q 576 397 589 371 q 642 414 610 414 q 726 332 726 414 z "},"'":{"ha":363,"x_min":69,"x_max":238,"o":"m 69 965 q 95 1007 69 992 q 158 1022 121 1022 q 215 1006 192 1022 q 238 956 238 990 q 211 717 238 894 q 136 654 197 654 q 85 663 114 654 q 89 721 89 688 q 79 879 89 807 q 69 965 69 951 z "},"(":{"ha":489,"x_min":106,"x_max":438,"o":"m 106 374 q 136 610 106 489 q 209 817 167 731 q 296 960 251 904 q 369 1015 340 1015 q 438 974 408 1015 q 301 710 353 879 q 250 374 250 540 q 303 26 250 190 q 438 -232 357 -137 q 369 -274 408 -274 q 297 -219 340 -274 q 210 -80 253 -165 q 136 129 167 6 q 106 374 106 253 z "},")":{"ha":474,"x_min":35,"x_max":367,"o":"m 367 368 q 336 131 367 253 q 263 -80 306 8 q 176 -225 221 -168 q 103 -282 132 -282 q 35 -240 64 -282 q 171 27 119 -146 q 222 368 222 200 q 169 715 222 551 q 35 974 115 879 q 103 1015 64 1015 q 176 961 132 1015 q 263 822 219 907 q 336 613 306 736 q 367 368 367 489 z "},"*":{"ha":585,"x_min":42,"x_max":532,"o":"m 368 968 q 349 857 368 935 q 471 953 439 921 q 532 861 532 900 q 361 758 532 801 q 513 635 418 706 q 471 588 497 607 q 414 568 444 568 q 354 601 381 568 q 290 704 328 633 q 250 631 283 692 q 200 544 217 571 q 128 583 160 558 q 97 633 97 607 q 221 763 97 672 q 42 824 85 811 q 71 892 47 861 q 129 922 94 922 q 185 904 151 922 q 242 861 218 886 q 214 1019 224 974 q 282 1032 257 1032 q 368 968 368 1032 z "},"+":{"ha":743,"x_min":51,"x_max":692,"o":"m 363 668 q 420 651 397 668 q 443 608 443 635 q 438 503 443 581 q 433 401 433 425 q 683 415 578 401 q 692 361 692 392 q 672 313 692 333 q 619 293 651 293 q 522 298 593 293 q 432 303 451 303 q 444 39 432 161 q 379 31 404 31 q 323 46 347 31 q 299 92 299 61 q 303 193 299 125 q 308 304 308 261 q 57 292 179 303 q 51 344 51 319 q 69 392 51 371 q 124 413 86 413 q 212 408 154 413 q 310 403 269 403 q 297 658 310 550 q 363 668 326 668 z "},",":{"ha":338,"x_min":32,"x_max":269,"o":"m 143 -40 q 75 35 143 22 q 61 88 61 61 q 90 144 61 121 q 161 167 119 167 q 238 133 206 167 q 269 31 269 100 q 212 -137 269 -61 q 75 -214 154 -214 q 32 -161 32 -214 q 33 -140 32 -147 l 40 -140 q 114 -110 85 -140 q 143 -40 143 -79 z "},"-":{"ha":361,"x_min":35,"x_max":354,"o":"m 354 374 q 335 327 354 344 q 282 310 315 310 q 232 313 267 310 q 174 317 197 317 q 42 301 113 317 q 35 357 35 335 q 52 402 35 383 q 107 421 69 421 q 156 418 117 421 q 222 415 194 415 q 344 429 289 415 q 354 374 354 400 z "},".":{"ha":331,"x_min":58,"x_max":260,"o":"m 158 -14 q 88 14 117 -14 q 58 85 58 42 q 89 155 58 126 q 161 183 119 183 q 231 155 201 183 q 260 85 260 126 q 229 15 260 43 q 158 -14 199 -14 z "},"/":{"ha":365,"x_min":50,"x_max":325,"o":"m 151 -160 q 106 -164 128 -164 q 50 -125 50 -164 q 53 -106 50 -122 q 65 -34 56 -90 q 86 101 74 22 q 125 344 99 181 q 182 703 151 507 q 225 1024 208 863 q 268 1031 246 1031 q 325 992 325 1031 q 303 849 325 986 q 194 161 251 528 q 151 -160 158 -62 z "},":":{"ha":331,"x_min":58,"x_max":260,"o":"m 160 461 q 88 491 117 461 q 58 567 58 521 q 88 642 58 611 q 160 674 118 674 q 231 642 201 674 q 260 567 260 611 q 231 491 260 521 q 160 461 201 461 m 160 -14 q 88 16 117 -14 q 58 92 58 46 q 88 167 58 136 q 160 199 118 199 q 231 167 201 199 q 260 92 260 136 q 231 16 260 46 q 160 -14 201 -14 z "},";":{"ha":360,"x_min":32,"x_max":269,"o":"m 143 -40 q 75 35 143 22 q 61 88 61 61 q 90 144 61 121 q 161 167 119 167 q 238 133 206 167 q 269 31 269 100 q 212 -137 269 -61 q 75 -214 154 -214 q 32 -161 32 -214 q 33 -140 32 -147 l 40 -140 q 114 -110 85 -140 q 143 -40 143 -79 m 168 461 q 96 491 125 461 q 67 567 67 521 q 97 642 67 611 q 168 674 126 674 q 239 642 210 674 q 268 567 268 611 q 239 491 268 521 q 168 461 210 461 z "},"<":{"ha":743,"x_min":132,"x_max":576,"o":"m 576 606 l 283 351 l 576 82 q 540 42 565 58 q 488 25 514 25 q 438 42 456 25 l 132 351 l 439 644 q 488 663 457 663 q 542 645 517 663 q 576 606 567 628 z "},"=":{"ha":743,"x_min":82,"x_max":661,"o":"m 653 279 q 661 225 661 254 q 641 176 661 196 q 589 157 621 157 q 477 163 547 157 q 376 168 407 168 q 89 154 239 168 q 82 208 82 188 q 99 256 82 235 q 154 276 117 276 q 246 272 169 276 q 374 267 322 267 q 653 279 551 267 m 653 551 q 661 497 661 526 q 641 449 661 468 q 589 429 621 429 q 477 435 547 429 q 376 440 407 440 q 89 426 239 440 q 82 481 82 460 q 99 528 82 507 q 154 549 117 549 q 246 544 169 549 q 374 539 322 539 q 653 551 551 539 z "},">":{"ha":743,"x_min":153,"x_max":599,"o":"m 153 82 l 446 351 l 153 606 q 189 645 164 628 q 243 663 214 663 q 293 644 272 663 l 599 351 l 293 42 q 243 25 275 25 q 190 41 215 25 q 153 82 165 57 z "},"?":{"ha":554,"x_min":47,"x_max":531,"o":"m 267 -14 q 196 14 225 -14 q 167 85 167 42 q 197 155 167 126 q 269 183 228 183 q 339 155 310 183 q 368 85 368 126 q 338 15 368 43 q 267 -14 307 -14 m 176 382 q 194 457 176 419 q 230 515 213 494 q 283 574 247 535 q 333 629 317 608 q 367 686 350 650 q 383 761 383 722 q 358 830 383 807 q 292 853 333 853 q 205 824 246 853 q 151 747 164 794 q 47 821 47 764 q 114 915 47 879 q 272 950 181 950 q 457 901 383 950 q 531 760 531 851 q 509 660 531 707 q 466 590 488 614 q 406 531 444 565 q 364 490 378 506 q 335 447 350 475 q 321 390 321 418 q 336 314 321 360 q 261 290 297 290 q 176 382 176 290 z "},"@":{"ha":1188,"x_min":106,"x_max":1081,"o":"m 492 75 q 377 126 422 75 q 332 272 332 178 q 410 515 332 414 q 601 615 488 615 q 824 551 731 615 q 772 256 772 358 q 817 183 772 183 q 904 251 863 183 q 946 433 946 319 q 874 647 946 571 q 651 722 801 722 q 432 650 529 722 q 286 473 335 578 q 238 258 238 368 q 317 41 238 128 q 553 -46 397 -46 q 738 42 696 -46 q 818 -29 818 15 q 739 -117 818 -83 q 542 -151 660 -151 q 217 -36 328 -151 q 106 250 106 79 q 145 451 106 351 q 256 634 185 551 q 438 768 328 717 q 679 819 549 819 q 972 720 863 819 q 1081 468 1081 621 q 986 206 1081 317 q 792 96 892 96 q 671 203 699 96 q 492 75 597 75 m 640 278 q 654 384 646 310 q 665 478 663 458 q 588 513 629 513 q 501 456 535 513 q 467 307 467 400 q 483 216 467 251 q 529 181 500 181 q 640 278 582 181 z "},"A":{"ha":796,"x_min":6,"x_max":818,"o":"m 519 381 q 478 499 499 438 q 436 632 458 561 q 406 729 414 703 q 283 382 339 519 q 419 379 372 379 q 519 381 492 379 m 390 276 q 240 279 354 276 q 129 -29 150 47 q 6 28 6 -15 q 65 185 6 47 q 208 538 124 324 q 342 917 293 751 q 414 921 369 921 q 470 906 450 921 q 506 847 490 892 q 661 389 613 514 q 818 14 765 118 q 729 -14 765 -14 q 649 24 671 -14 q 602 151 632 67 q 556 279 572 235 q 390 276 419 276 z "},"B":{"ha":764,"x_min":82,"x_max":711,"o":"m 319 828 q 243 822 293 828 q 249 540 249 717 q 311 538 285 538 q 519 681 519 538 q 319 828 519 828 m 375 93 q 501 140 450 93 q 553 267 553 186 q 497 404 553 357 q 357 451 440 451 q 247 444 282 451 q 241 281 247 385 q 229 143 235 176 q 294 108 251 122 q 375 93 336 93 m 82 74 q 104 538 104 232 q 86 918 104 796 q 318 935 193 935 q 577 879 476 935 q 678 696 678 824 q 557 503 678 557 q 711 265 711 438 q 622 60 711 133 q 403 -14 532 -14 q 82 74 193 -14 z "},"C":{"ha":846,"x_min":58,"x_max":793,"o":"m 718 215 q 771 176 749 200 q 793 125 793 151 q 712 27 793 68 q 507 -14 631 -14 q 181 117 304 -14 q 58 461 58 249 q 181 809 58 683 q 514 935 304 935 q 703 891 626 935 q 779 783 779 847 q 752 725 779 750 q 669 692 725 700 q 595 791 649 757 q 483 825 542 825 q 291 729 365 825 q 217 488 217 633 q 292 208 217 319 q 506 96 368 96 q 626 126 568 96 q 718 215 685 156 z "},"D":{"ha":886,"x_min":78,"x_max":828,"o":"m 78 74 q 100 540 97 200 q 82 918 100 783 q 306 935 169 935 q 508 911 418 935 q 672 835 597 888 q 787 689 746 783 q 828 463 828 594 q 713 120 828 254 q 383 -14 597 -14 q 78 74 186 -14 m 239 822 q 244 610 244 732 q 225 146 244 322 q 390 97 292 97 q 525 128 468 97 q 612 212 582 160 q 656 320 642 264 q 669 438 669 376 q 578 730 669 632 q 318 828 488 828 q 239 822 292 828 z "},"E":{"ha":682,"x_min":78,"x_max":647,"o":"m 238 810 q 243 550 243 756 l 347 550 q 506 556 458 550 q 511 511 511 543 q 497 458 511 472 q 453 442 483 443 q 360 440 418 440 l 243 440 q 253 108 243 164 q 349 106 311 106 q 636 136 571 106 q 647 63 647 104 q 635 18 647 31 q 397 -3 608 -3 q 167 0 208 -3 q 109 19 124 1 q 94 79 94 36 q 96 193 94 106 q 97 328 97 281 l 97 597 q 78 913 97 792 q 388 925 229 925 q 619 904 593 925 q 632 860 632 892 q 621 785 632 818 q 379 814 544 814 q 238 810 313 814 z "},"F":{"ha":632,"x_min":78,"x_max":632,"o":"m 243 425 l 243 272 q 269 0 243 88 q 183 -14 231 -14 q 113 4 132 -14 q 94 65 94 22 q 96 175 94 88 q 97 311 97 263 l 97 600 q 78 913 97 792 q 388 925 229 925 q 619 904 593 925 q 632 860 632 892 q 621 785 632 818 q 379 814 544 814 q 238 810 313 814 q 243 624 243 767 l 243 535 l 347 535 q 506 540 458 535 q 511 496 511 528 q 497 442 511 457 q 453 426 483 428 q 360 425 418 425 l 243 425 z "},"G":{"ha":863,"x_min":58,"x_max":803,"o":"m 793 118 q 710 27 793 68 q 507 -14 628 -14 q 181 117 304 -14 q 58 461 58 249 q 181 809 58 683 q 514 935 304 935 q 703 891 626 935 q 779 783 779 847 q 669 692 779 710 q 594 792 646 758 q 485 825 543 825 q 292 728 367 825 q 217 488 217 632 q 290 208 217 319 q 494 96 364 96 q 651 140 590 96 q 642 432 649 318 q 710 436 674 436 q 803 385 803 436 l 797 290 q 793 118 793 196 z "},"H":{"ha":872,"x_min":78,"x_max":794,"o":"m 88 321 l 88 599 q 78 918 88 792 q 151 925 119 925 q 244 872 244 925 q 242 813 244 864 q 236 689 239 763 q 233 551 233 615 q 431 550 308 550 q 622 551 553 550 l 622 599 q 613 918 622 792 q 686 925 654 925 q 779 872 779 925 q 776 816 779 864 q 771 697 774 768 q 768 561 768 625 l 768 282 q 794 10 768 97 q 708 -4 756 -4 q 638 14 657 -4 q 619 75 619 32 q 621 185 619 97 q 622 321 622 272 l 622 449 q 426 447 551 447 q 233 449 304 447 l 233 282 q 260 10 233 97 q 174 -4 221 -4 q 103 14 122 -4 q 85 75 85 32 q 86 185 85 97 q 88 321 88 272 z "},"I":{"ha":338,"x_min":78,"x_max":260,"o":"m 88 321 l 88 599 q 78 918 88 792 q 151 925 119 925 q 244 872 244 925 q 242 816 244 864 q 236 697 239 768 q 233 561 233 625 l 233 282 q 260 10 233 97 q 174 -4 221 -4 q 103 14 122 -4 q 85 75 85 32 q 86 185 85 97 q 88 321 88 272 z "},"J":{"ha":338,"x_min":-44,"x_max":260,"o":"m 17 -165 q -44 -57 -44 -165 q 26 -34 -1 -47 q 69 -6 53 -21 q 92 37 85 8 q 101 90 100 65 q 103 164 103 115 l 103 599 q 93 918 103 792 q 169 925 135 925 q 260 872 260 925 q 257 821 260 865 q 251 710 254 776 q 249 585 249 644 l 249 154 q 224 -1 249 65 q 160 -101 199 -68 q 85 -150 121 -135 q 17 -165 49 -165 z "},"K":{"ha":729,"x_min":78,"x_max":729,"o":"m 88 321 l 88 599 q 78 918 88 792 q 151 925 119 925 q 244 872 244 925 q 242 823 244 865 q 236 707 239 781 q 233 551 233 633 q 435 735 329 625 q 581 924 540 844 q 642 896 621 911 q 663 851 663 881 q 641 798 663 831 q 566 713 619 765 q 474 624 513 660 q 353 514 436 589 q 404 423 371 482 q 455 333 438 364 q 501 257 472 303 q 548 188 529 211 q 590 140 567 165 q 635 103 614 114 q 679 93 657 93 q 717 97 700 93 q 729 53 729 72 q 701 3 729 21 q 624 -14 672 -14 q 499 42 558 -14 q 399 164 439 99 q 264 406 358 229 q 259 414 261 411 q 255 422 257 417 q 250 431 253 426 l 233 418 l 233 282 q 260 10 233 97 q 174 -4 221 -4 q 103 14 122 -4 q 85 75 85 32 q 86 185 85 97 q 88 321 88 272 z "},"L":{"ha":611,"x_min":78,"x_max":611,"o":"m 88 311 l 88 599 q 78 921 88 794 q 154 925 110 925 q 244 872 244 925 q 242 816 244 864 q 236 697 239 768 q 233 561 233 625 l 233 442 q 243 108 233 167 q 332 106 299 106 q 596 138 536 106 q 611 69 611 107 q 576 10 611 24 q 458 -3 540 -3 l 338 -3 q 153 0 214 -3 q 99 19 114 1 q 85 79 85 38 q 86 182 85 101 q 88 311 88 263 z "},"M":{"ha":1100,"x_min":78,"x_max":1022,"o":"m 996 606 l 996 282 q 1022 7 996 94 q 947 -4 1003 -4 q 871 14 890 -4 q 851 75 851 32 l 851 700 q 618 3 760 472 q 567 -3 596 -3 q 478 33 494 -3 q 354 362 436 125 q 231 703 272 599 l 231 282 q 257 7 231 94 q 185 -4 219 -4 q 119 14 136 -4 q 101 75 101 32 q 103 185 101 97 q 104 321 104 272 l 104 671 q 78 915 104 826 q 176 926 133 926 q 297 860 256 926 q 401 648 350 775 q 478 433 451 521 q 554 182 506 346 q 813 863 671 621 q 931 926 849 926 q 1021 915 985 926 q 996 606 996 832 z "},"N":{"ha":858,"x_min":78,"x_max":781,"o":"m 778 1 q 717 -4 750 -4 q 624 33 647 -4 q 424 374 558 139 q 222 718 290 608 l 229 356 q 257 7 233 75 q 190 -4 226 -4 q 120 14 139 -4 q 101 75 101 32 q 103 185 101 97 q 104 321 104 272 l 104 599 q 78 915 104 831 q 163 926 113 926 q 263 886 226 926 q 454 605 326 815 q 653 247 582 394 q 642 583 642 406 q 632 921 642 790 q 689 925 664 925 q 781 872 781 925 q 778 816 781 864 q 772 697 775 768 q 768 561 768 625 l 768 324 q 778 1 768 128 z "},"O":{"ha":994,"x_min":58,"x_max":938,"o":"m 496 -14 q 177 115 296 -14 q 58 460 58 244 q 177 806 58 678 q 496 935 296 935 q 818 806 699 935 q 938 460 938 678 q 817 115 938 244 q 496 -14 697 -14 m 779 436 q 753 620 779 536 q 662 765 728 704 q 499 825 596 825 q 293 734 369 825 q 217 500 217 643 q 242 308 217 396 q 334 158 268 221 q 497 96 400 96 q 706 190 632 96 q 779 436 779 285 z "},"P":{"ha":708,"x_min":78,"x_max":685,"o":"m 358 433 q 482 484 438 433 q 526 621 526 535 q 476 783 526 739 q 321 828 426 828 q 236 822 292 828 q 242 564 242 747 l 242 457 q 358 433 288 433 m 96 321 l 96 599 q 78 918 96 790 q 294 935 185 935 q 685 628 685 935 q 601 401 685 479 q 403 324 517 324 q 242 368 310 324 l 242 272 q 268 7 242 92 q 183 -4 235 -4 q 111 14 129 -4 q 93 75 93 32 q 94 185 93 97 q 96 321 96 272 z "},"Q":{"ha":989,"x_min":58,"x_max":932,"o":"m 776 436 q 751 620 776 536 q 659 765 725 704 q 496 825 593 825 q 290 734 367 825 q 214 500 214 643 q 240 308 214 396 q 331 158 265 221 q 494 96 397 96 q 703 190 629 96 q 776 436 776 285 m 432 -12 q 158 132 258 7 q 58 460 58 257 q 175 807 58 679 q 494 935 292 935 q 815 807 697 935 q 932 460 932 679 q 828 131 932 257 q 549 -11 725 4 q 606 -100 564 -67 q 701 -133 649 -133 q 784 -110 743 -133 q 851 -56 825 -86 q 903 -154 903 -97 q 851 -230 903 -204 q 715 -256 800 -256 q 627 -243 669 -256 q 544 -204 585 -231 q 474 -128 504 -178 q 432 -12 444 -79 z "},"R":{"ha":749,"x_min":78,"x_max":743,"o":"m 625 132 q 699 93 657 93 q 731 97 714 93 q 743 49 743 68 q 709 1 743 17 q 626 -14 675 -14 q 483 65 546 -14 q 393 215 440 119 q 319 381 346 310 q 288 425 288 393 q 299 479 288 451 q 350 474 321 474 q 476 519 425 474 q 526 653 526 564 q 478 790 526 751 q 326 828 429 828 q 236 822 289 828 q 242 546 242 744 l 242 275 q 268 7 242 92 q 182 -4 238 -4 q 112 14 131 -4 q 93 75 93 32 q 94 185 93 97 q 96 321 96 272 l 96 599 q 78 918 96 790 q 296 935 185 935 q 686 653 686 935 q 628 476 686 546 q 476 381 571 406 q 625 132 567 188 z "},"S":{"ha":735,"x_min":53,"x_max":682,"o":"m 567 706 q 489 793 546 758 q 371 828 432 828 q 252 793 300 828 q 204 690 204 758 q 231 620 204 649 q 299 576 257 592 q 392 546 342 560 q 494 514 443 532 q 587 471 544 496 q 656 399 629 446 q 682 286 682 351 q 654 144 682 204 q 577 50 626 83 q 471 1 528 17 q 347 -14 414 -14 q 142 28 232 -14 q 53 126 53 69 q 133 221 53 183 q 229 132 161 168 q 367 96 297 96 q 501 133 447 96 q 554 244 554 169 q 519 319 554 289 q 431 365 483 350 q 315 403 378 381 q 200 453 253 426 q 112 538 147 481 q 76 675 76 594 q 169 867 76 799 q 400 935 263 935 q 517 920 458 935 q 618 873 575 906 q 661 797 661 840 q 567 706 661 725 z "},"T":{"ha":674,"x_min":0,"x_max":674,"o":"m 267 321 l 267 599 q 264 807 267 676 q 4 801 67 807 q 0 851 0 818 q 15 902 0 889 q 61 917 29 915 q 224 918 96 918 l 388 918 q 669 922 621 918 q 674 874 674 906 q 659 823 674 836 q 613 808 644 810 q 419 807 574 807 q 413 561 413 657 l 413 282 q 439 10 413 97 q 353 -4 400 -4 q 283 14 301 -4 q 264 75 264 32 q 265 185 264 97 q 267 321 267 272 z "},"U":{"ha":893,"x_min":85,"x_max":815,"o":"m 85 914 q 167 925 121 925 q 244 909 219 925 q 268 854 268 893 q 258 599 268 797 q 247 292 247 401 q 296 152 247 197 q 410 107 344 107 q 535 138 469 107 q 642 211 601 168 q 642 255 642 221 q 642 376 642 289 q 643 599 643 463 q 633 919 643 793 q 710 925 676 925 q 800 872 800 925 q 797 821 800 869 q 792 669 794 772 q 789 429 789 565 q 793 141 789 214 q 815 7 797 68 q 729 -4 785 -4 q 660 13 679 -4 q 640 78 640 31 l 640 104 q 510 19 586 51 q 371 -14 435 -14 q 170 48 244 -14 q 96 267 96 110 q 102 489 96 349 q 108 696 108 629 q 85 914 108 828 z "},"V":{"ha":803,"x_min":-24,"x_max":792,"o":"m 635 925 q 711 935 672 935 q 774 919 756 935 q 792 867 792 904 q 694 458 792 714 q 496 72 597 201 q 431 11 460 26 q 363 -4 403 -4 q 308 0 326 -4 q 158 511 264 224 q -24 872 51 799 q 100 926 50 926 q 176 875 150 926 q 302 551 232 761 q 417 167 372 342 q 574 504 508 300 q 640 857 640 708 q 635 925 640 906 z "},"W":{"ha":1317,"x_min":-24,"x_max":1293,"o":"m 1136 925 q 1213 935 1174 935 q 1275 919 1257 935 q 1293 867 1293 904 q 1201 458 1293 714 q 1014 72 1110 201 q 953 11 981 26 q 888 -4 925 -4 q 838 0 854 -4 q 682 543 790 246 q 581 276 639 406 q 467 72 522 146 q 406 11 433 26 q 340 -4 378 -4 q 290 0 307 -4 q 148 511 249 224 q -24 872 47 799 q 100 926 50 926 q 176 875 154 926 q 290 549 228 756 q 393 167 353 342 q 535 504 476 300 q 594 857 594 708 q 589 925 594 906 q 665 935 626 935 q 728 919 710 935 q 746 867 746 904 q 743 826 746 854 q 940 167 851 550 q 1083 504 1024 300 q 1142 857 1142 708 q 1136 925 1142 906 z "},"X":{"ha":840,"x_min":29,"x_max":832,"o":"m 29 61 q 347 476 29 156 q 275 580 331 500 q 191 699 219 660 q 119 789 163 738 q 46 867 76 840 q 119 923 94 911 q 169 935 143 935 q 257 885 217 935 q 342 757 285 850 q 440 588 400 664 q 549 760 497 664 q 619 933 601 857 q 767 857 767 925 q 683 693 767 803 q 499 486 600 583 q 622 304 576 371 q 731 158 668 238 q 832 53 794 79 q 713 -14 772 -14 q 617 40 654 -14 q 406 375 499 199 q 175 -14 217 133 q 29 61 29 -8 z "},"Y":{"ha":704,"x_min":-12,"x_max":699,"o":"m 699 856 q 609 671 699 807 q 431 426 519 535 l 431 282 q 457 10 431 97 q 371 -4 418 -4 q 301 14 319 -4 q 282 75 282 32 q 283 185 282 97 q 285 321 285 272 l 285 421 q -12 853 89 785 q 44 904 10 882 q 111 926 79 926 q 193 879 160 926 q 385 536 296 728 q 504 760 449 635 q 567 933 560 885 q 699 856 699 928 z "},"Z":{"ha":783,"x_min":31,"x_max":760,"o":"m 738 900 q 760 844 760 875 q 736 781 760 811 l 188 94 q 267 93 208 93 q 714 147 538 93 q 731 69 731 97 q 716 28 731 43 q 683 9 701 14 q 628 0 664 4 q 396 -8 540 -8 q 56 8 189 -8 q 31 78 31 42 q 65 165 31 122 l 575 817 q 442 821 521 821 q 85 783 240 821 q 71 853 71 822 q 111 913 71 899 q 292 926 171 926 q 738 900 543 926 z "},"[":{"ha":528,"x_min":176,"x_max":481,"o":"m 313 900 l 313 -164 q 397 -162 353 -162 q 462 -177 443 -162 q 481 -221 481 -192 q 471 -264 481 -236 l 176 -264 l 176 1000 l 469 1000 q 481 957 481 978 q 460 911 481 924 q 397 899 440 899 q 313 900 343 899 z "},"\\":{"ha":365,"x_min":42,"x_max":317,"o":"m 215 -160 q 172 161 208 -62 q 64 849 115 528 q 42 992 42 986 q 99 1031 42 1031 q 142 1024 121 1031 q 185 703 158 863 q 242 344 215 507 q 281 101 268 181 q 302 -34 293 22 q 314 -106 311 -90 q 317 -125 317 -122 q 261 -164 317 -164 q 215 -160 239 -164 z "},"]":{"ha":492,"x_min":35,"x_max":339,"o":"m 203 -164 l 203 900 q 118 899 172 899 q 55 911 75 899 q 35 957 35 924 q 46 1000 35 978 l 339 1000 l 339 -264 l 44 -264 q 35 -221 35 -236 q 53 -177 35 -192 q 118 -162 72 -162 q 203 -164 163 -162 z "},"^":{"ha":678,"x_min":29,"x_max":649,"o":"m 589 567 q 339 775 536 567 q 194 633 268 700 q 90 567 119 567 q 29 599 61 567 q 166 769 61 653 q 339 951 271 885 q 510 770 404 888 q 649 599 615 653 q 589 567 614 567 z "},"_":{"ha":743,"x_min":0,"x_max":743,"o":"m 743 -153 q 729 -194 743 -178 q 693 -211 715 -211 q 597 -206 672 -211 q 483 -200 522 -200 l 285 -200 q 4 -211 126 -200 q 0 -169 0 -190 q 13 -129 0 -147 q 50 -111 25 -111 q 138 -116 54 -111 q 282 -121 221 -121 l 479 -121 q 739 -111 656 -121 q 743 -153 743 -124 z "},"`":{"ha":317,"x_min":-60,"x_max":244,"o":"m 13 1003 q 129 897 68 943 q 217 831 190 851 q 244 788 244 810 q 200 726 244 756 q 85 797 157 758 q -23 862 14 835 q -60 918 -60 889 q 13 1003 -60 967 z "},"a":{"ha":664,"x_min":53,"x_max":600,"o":"m 421 199 q 424 297 421 263 q 363 289 382 292 q 313 281 344 286 q 266 268 281 275 q 235 251 251 261 q 211 227 218 242 q 204 193 204 213 q 232 111 204 138 q 303 85 260 85 q 424 138 374 85 q 421 199 421 156 m 426 382 q 424 454 426 429 q 413 511 422 479 q 383 558 404 543 q 325 572 361 572 q 238 542 279 572 q 179 460 197 513 q 56 533 56 461 q 140 633 56 593 q 331 674 224 674 q 517 621 458 674 q 576 432 576 568 q 575 367 576 428 q 574 247 574 306 q 600 10 574 89 q 521 -6 560 -6 q 428 58 443 -6 q 240 -14 344 -14 q 106 36 160 -14 q 53 183 53 86 q 86 299 53 261 q 175 354 119 336 q 426 382 258 381 z "},"b":{"ha":725,"x_min":71,"x_max":679,"o":"m 528 344 q 487 516 528 460 q 385 572 446 572 q 235 503 304 572 q 236 318 236 419 q 232 156 236 224 q 379 89 299 89 q 491 164 454 89 q 528 344 528 239 m 435 674 q 611 592 543 674 q 679 349 679 511 q 599 91 679 196 q 367 -14 518 -14 q 83 83 201 -14 q 93 379 93 165 q 86 738 93 503 q 71 1026 79 974 q 144 1032 97 1032 q 242 957 242 1032 q 238 836 242 940 q 233 601 233 732 q 435 674 322 674 z "},"c":{"ha":644,"x_min":53,"x_max":599,"o":"m 393 86 q 471 106 431 86 q 531 161 511 125 q 599 83 599 125 q 533 11 599 36 q 388 -14 468 -14 q 270 6 328 -14 q 163 65 213 26 q 83 171 113 104 q 53 324 53 238 q 153 585 53 496 q 381 674 253 674 q 528 637 458 674 q 599 535 599 600 q 569 488 599 506 q 490 464 540 469 q 440 542 479 514 q 361 569 401 569 q 250 506 294 569 q 206 339 206 442 q 258 147 206 207 q 393 86 310 86 z "},"d":{"ha":735,"x_min":53,"x_max":664,"o":"m 369 89 q 496 150 435 89 q 493 543 493 406 q 376 572 435 572 q 251 511 297 572 q 204 351 204 450 q 252 162 204 235 q 369 89 300 89 m 53 331 q 138 579 53 485 q 346 674 224 674 q 496 635 426 674 q 479 1026 496 883 q 554 1032 518 1032 q 625 1013 600 1032 q 650 957 650 993 q 644 703 650 922 q 638 311 638 485 q 664 10 638 81 q 588 -4 629 -4 q 501 54 510 -4 q 331 -14 421 -14 q 135 83 218 -14 q 53 331 53 181 z "},"e":{"ha":674,"x_min":53,"x_max":621,"o":"m 310 274 q 208 276 272 274 q 272 132 222 178 q 393 86 321 86 q 471 106 431 86 q 531 161 511 125 q 599 83 599 125 q 533 11 599 36 q 388 -14 468 -14 q 155 72 257 -14 q 53 321 53 158 q 151 583 53 492 q 382 674 249 674 q 555 615 489 674 q 621 476 621 557 q 597 369 621 411 q 525 307 572 326 q 429 281 478 288 q 310 274 381 274 m 369 572 q 258 522 304 572 q 204 364 213 472 q 335 368 293 364 q 469 474 469 385 q 441 543 469 514 q 369 572 413 572 z "},"f":{"ha":469,"x_min":6,"x_max":510,"o":"m 261 706 l 261 658 q 439 665 378 658 q 446 621 446 650 q 429 573 446 586 q 376 558 413 560 q 261 557 336 557 l 261 282 q 288 10 261 99 q 217 -4 257 -4 q 137 13 158 -4 q 115 71 115 31 q 117 302 115 146 q 118 556 118 458 q 11 547 99 556 q 6 599 6 569 q 21 639 6 628 q 64 656 36 650 q 118 658 89 658 q 178 913 121 832 q 379 994 235 994 q 472 976 435 994 q 510 924 510 957 q 458 844 510 886 q 354 890 408 890 q 290 860 315 890 q 261 706 261 819 z "},"g":{"ha":753,"x_min":42,"x_max":729,"o":"m 353 163 q 279 169 317 163 q 232 85 232 119 q 315 57 232 57 l 474 57 q 686 -101 686 57 q 579 -279 686 -211 q 321 -347 472 -347 q 112 -299 182 -347 q 42 -182 42 -251 q 142 -35 42 -103 q 92 33 92 -6 q 118 106 92 60 q 189 190 144 151 q 89 278 124 218 q 54 418 54 338 q 135 601 54 528 q 339 675 215 675 q 519 625 447 675 q 649 699 578 699 q 729 626 729 699 q 721 579 729 606 q 669 586 690 586 q 581 567 626 586 q 622 418 622 499 q 543 232 622 301 q 353 163 464 163 m 471 407 q 435 526 471 478 q 338 574 399 574 q 204 429 204 574 q 240 312 204 358 q 338 265 275 265 q 440 300 410 265 q 471 407 471 335 m 465 -58 l 329 -58 q 224 -53 257 -58 q 179 -157 179 -114 q 331 -229 179 -229 q 501 -197 443 -229 q 560 -119 560 -165 q 536 -72 560 -85 q 465 -58 513 -58 z "},"h":{"ha":735,"x_min":71,"x_max":664,"o":"m 488 422 q 457 536 488 499 q 378 574 426 574 q 225 500 301 574 q 227 276 226 449 q 236 3 228 103 q 167 -3 199 -3 q 76 53 76 -3 q 78 119 76 61 q 82 298 81 178 q 83 575 83 418 q 71 1025 83 903 q 143 1032 110 1032 q 242 956 242 1032 q 238 907 242 950 q 231 781 235 864 q 226 600 226 699 q 442 674 322 674 q 579 624 526 674 q 632 463 632 574 q 631 421 632 454 q 629 333 631 388 q 628 218 628 278 q 664 13 628 104 q 586 -6 621 -6 q 506 18 529 -6 q 482 107 482 42 q 485 287 482 160 q 488 422 488 414 z "},"i":{"ha":346,"x_min":68,"x_max":282,"o":"m 161 664 q 261 590 261 664 q 257 534 261 582 q 249 415 253 486 q 246 281 246 344 q 282 10 246 94 q 203 -6 247 -6 q 120 19 142 -6 q 99 104 99 44 q 100 212 99 126 q 101 343 101 297 q 89 658 101 544 q 161 664 122 664 m 168 722 q 97 750 126 722 q 68 821 68 778 q 99 891 68 863 q 171 919 129 919 q 240 891 211 919 q 269 821 269 863 q 239 751 269 779 q 168 722 208 722 z "},"j":{"ha":354,"x_min":-174,"x_max":283,"o":"m 182 722 q 111 750 140 722 q 82 821 82 778 q 113 891 82 863 q 185 919 143 919 q 254 891 225 919 q 283 821 283 863 q 253 751 283 779 q 182 722 222 722 m 175 665 q 274 592 274 665 q 266 456 274 557 q 258 265 258 356 q 261 115 258 250 q 264 -97 264 -21 q 195 -286 264 -222 q -1 -350 126 -350 q -122 -328 -71 -350 q -174 -271 -174 -306 q -115 -185 -174 -229 q 14 -247 -61 -247 q 119 -89 119 -247 q 117 97 119 -39 q 115 322 115 233 q 103 658 115 558 q 175 665 139 665 z "},"k":{"ha":685,"x_min":71,"x_max":653,"o":"m 371 572 q 225 510 307 572 q 227 281 226 457 q 236 3 228 104 q 167 -3 199 -3 q 76 53 76 -3 q 78 121 76 63 q 82 299 81 179 q 83 575 83 418 q 71 1025 83 903 q 143 1032 110 1032 q 242 956 242 1032 q 238 897 242 943 q 231 773 235 850 q 226 610 226 696 q 413 674 318 674 q 560 622 510 674 q 611 493 611 569 q 559 350 611 414 q 415 271 507 286 q 515 133 467 182 q 583 94 556 94 q 638 103 611 94 q 653 50 653 68 q 619 2 653 18 q 535 -14 585 -14 q 426 44 478 -14 q 283 286 353 129 q 260 324 260 296 q 269 368 260 342 q 332 360 299 360 q 428 396 393 360 q 464 479 464 432 q 440 545 464 518 q 371 572 415 572 z "},"l":{"ha":335,"x_min":71,"x_max":264,"o":"m 143 1032 q 242 956 242 1032 q 238 891 242 947 q 230 729 233 835 q 226 494 226 624 q 232 151 226 228 q 264 13 238 75 q 182 -6 224 -6 q 101 20 122 -6 q 81 107 81 46 q 83 490 83 368 q 71 1025 83 911 q 143 1032 110 1032 z "},"m":{"ha":1150,"x_min":71,"x_max":1079,"o":"m 71 649 l 76 653 q 143 664 114 664 q 206 651 183 664 q 233 596 228 639 q 456 674 332 674 q 622 585 576 674 q 856 674 719 674 q 994 624 940 674 q 1047 463 1047 574 q 1045 360 1047 458 q 1043 218 1043 263 q 1079 13 1043 104 q 1000 -6 1036 -6 q 919 18 943 -6 q 896 107 896 42 q 899 272 896 156 q 901 422 901 389 q 872 536 901 499 q 793 574 842 574 q 639 501 718 574 q 642 218 642 315 q 650 3 642 93 q 582 -3 613 -3 q 490 53 490 -3 q 496 191 490 76 q 501 422 501 306 q 471 536 501 499 q 392 574 440 574 q 239 501 315 574 q 242 231 242 315 q 250 3 242 97 q 181 -3 213 -3 q 90 53 90 -3 q 94 177 90 85 q 97 344 97 269 q 71 649 97 576 z "},"n":{"ha":739,"x_min":71,"x_max":678,"o":"m 233 596 q 456 674 332 674 q 593 624 540 674 q 646 463 646 574 q 644 354 646 447 q 642 218 642 261 q 678 13 642 104 q 600 -6 635 -6 q 519 18 543 -6 q 496 107 496 42 q 499 281 496 179 q 501 422 501 383 q 471 536 501 499 q 392 574 440 574 q 239 501 318 574 q 242 231 242 315 q 250 3 242 97 q 181 -3 213 -3 q 90 53 90 -3 q 94 183 90 93 q 97 346 97 274 q 71 649 97 576 q 143 664 104 664 q 206 651 183 664 q 233 596 228 639 z "},"o":{"ha":750,"x_min":53,"x_max":697,"o":"m 546 313 q 499 498 546 424 q 374 572 453 572 q 249 511 293 572 q 204 349 204 450 q 249 163 204 236 q 374 89 294 89 q 501 150 456 89 q 546 313 546 211 m 374 -14 q 141 80 229 -14 q 53 331 53 174 q 141 581 53 488 q 374 674 229 674 q 608 581 519 674 q 697 331 697 488 q 608 80 697 174 q 374 -14 519 -14 z "},"p":{"ha":736,"x_min":71,"x_max":683,"o":"m 390 572 q 239 511 313 572 q 242 126 242 169 q 378 89 296 89 q 467 129 431 89 q 517 226 503 169 q 532 349 532 282 q 492 518 532 464 q 390 572 453 572 m 235 592 q 442 674 336 674 q 616 599 549 674 q 683 368 683 524 q 606 97 683 208 q 382 -14 528 -14 q 239 25 308 -14 q 267 -336 239 -256 q 188 -350 225 -350 q 113 -331 132 -350 q 93 -268 93 -312 q 95 56 93 -164 q 97 347 97 275 q 71 649 97 574 q 149 664 106 664 q 235 592 229 664 z "},"q":{"ha":746,"x_min":53,"x_max":675,"o":"m 367 572 q 251 511 299 572 q 204 356 204 450 q 251 161 204 233 q 369 89 299 89 q 504 151 447 89 q 515 510 506 286 q 367 572 454 572 m 336 -14 q 136 84 219 -14 q 53 329 53 182 q 144 581 53 489 q 374 674 236 674 q 665 578 540 674 q 647 32 647 392 q 675 -337 647 -269 q 597 -350 638 -350 q 521 -331 540 -350 q 501 -276 501 -311 q 504 43 501 -72 q 336 -14 432 -14 z "},"r":{"ha":497,"x_min":71,"x_max":474,"o":"m 143 664 q 215 646 193 664 q 236 589 236 628 l 236 572 q 393 674 317 674 q 474 615 474 674 q 424 514 474 576 q 358 539 394 539 q 231 463 288 539 q 226 282 226 374 q 264 13 226 100 q 182 -6 226 -6 q 101 21 122 -6 q 81 106 81 47 q 82 200 81 122 q 83 322 83 278 q 71 657 83 554 q 143 664 111 664 z "},"s":{"ha":607,"x_min":47,"x_max":558,"o":"m 443 474 q 289 564 415 564 q 226 544 253 564 q 200 489 200 524 q 237 424 200 447 q 326 389 274 400 q 432 363 379 378 q 522 306 485 347 q 558 194 558 264 q 478 40 558 93 q 290 -14 399 -14 q 121 18 194 -14 q 47 97 47 50 q 133 193 47 157 q 314 96 175 96 q 419 167 419 96 q 383 230 419 208 q 293 262 346 251 q 188 289 240 272 q 98 350 135 306 q 61 469 61 394 q 141 622 61 569 q 329 674 221 674 q 416 665 371 674 q 503 627 461 656 q 546 556 546 599 q 518 506 546 528 q 443 474 490 485 z "},"t":{"ha":517,"x_min":0,"x_max":499,"o":"m 68 658 q 131 660 81 660 q 122 800 128 742 q 190 806 151 806 q 286 754 286 806 q 282 658 286 721 q 490 667 432 658 q 499 624 499 651 q 482 573 499 586 q 429 558 465 560 q 279 557 388 557 q 276 275 276 426 q 279 201 276 231 q 292 143 282 172 q 321 99 301 114 q 371 85 340 85 q 460 133 414 85 q 496 65 496 93 q 455 6 496 25 q 363 -14 414 -14 q 131 239 131 -14 q 131 420 131 304 q 132 558 132 536 q 6 547 43 553 q 0 593 0 563 q 16 642 0 629 q 68 658 32 654 z "},"u":{"ha":735,"x_min":71,"x_max":664,"o":"m 506 65 q 294 -14 414 -14 q 90 183 90 -14 q 92 290 90 193 q 94 429 94 386 q 71 653 94 572 q 147 665 108 665 q 221 649 199 665 q 243 593 243 632 q 239 396 243 521 q 235 235 235 271 q 265 126 235 164 q 342 89 294 89 q 496 160 422 89 q 494 336 494 217 q 485 660 494 544 q 554 665 524 665 q 643 611 643 665 q 640 472 643 586 q 638 283 638 358 q 664 11 638 110 q 594 -4 635 -4 q 553 -1 568 -4 q 524 19 538 3 q 506 65 510 35 z "},"v":{"ha":642,"x_min":-4,"x_max":601,"o":"m 524 674 q 601 618 601 674 q 531 332 601 524 q 390 51 461 140 q 288 -4 346 -4 q 222 1 246 -4 q 118 367 190 164 q -4 621 46 571 q 106 668 57 668 q 176 619 153 668 q 251 423 200 571 q 336 158 303 275 q 420 372 379 228 q 461 619 461 517 q 457 665 461 644 q 524 674 488 674 z "},"w":{"ha":1019,"x_min":-4,"x_max":979,"o":"m 901 674 q 979 618 979 674 q 910 332 979 524 q 769 51 840 140 q 665 -4 724 -4 q 601 1 624 -4 q 522 304 572 149 q 390 51 456 133 q 288 -4 346 -4 q 222 1 246 -4 q 118 367 190 164 q -4 621 46 571 q 106 668 57 668 q 176 619 153 668 q 252 424 201 571 q 336 160 303 276 q 419 374 378 233 q 461 619 461 515 q 457 665 461 644 q 524 674 488 674 q 601 618 601 674 q 589 529 601 581 q 714 160 674 304 q 800 374 760 238 q 840 619 840 511 q 836 665 840 644 q 901 674 864 674 z "},"x":{"ha":633,"x_min":29,"x_max":615,"o":"m 429 28 q 290 239 382 86 q 158 -14 172 64 q 29 42 29 -14 q 101 175 29 82 q 246 338 174 268 q 29 607 90 567 q 135 674 93 674 q 214 635 185 674 q 329 453 247 592 q 426 675 417 606 q 558 619 558 672 q 501 503 558 586 q 376 353 443 421 q 515 155 447 243 q 615 43 582 67 q 503 -14 560 -14 q 429 28 463 -14 z "},"y":{"ha":647,"x_min":0,"x_max":611,"o":"m 143 -347 q 90 -326 115 -347 q 47 -274 64 -306 q 149 -175 86 -247 q 268 -8 211 -103 q 135 364 217 163 q 0 619 54 565 q 110 667 68 667 q 185 619 163 667 q 269 422 215 556 q 360 169 324 288 q 438 415 407 286 q 468 624 468 544 q 465 665 468 649 q 536 674 497 674 q 611 615 611 674 q 561 394 611 551 q 443 90 511 238 q 214 -310 318 -181 q 143 -347 183 -347 z "},"z":{"ha":679,"x_min":29,"x_max":608,"o":"m 608 561 q 582 496 608 522 q 196 97 440 347 q 563 143 424 97 q 576 72 576 107 q 563 31 576 47 q 534 10 550 15 q 492 1 518 6 q 308 -8 433 -8 q 51 10 156 -8 q 29 82 29 43 q 63 154 29 119 q 244 340 107 200 q 454 557 382 481 q 335 560 415 560 q 83 524 185 560 q 69 601 69 563 q 114 657 72 643 q 254 668 149 668 q 430 657 329 668 q 585 632 531 646 q 608 561 608 604 z "},"{":{"ha":601,"x_min":82,"x_max":542,"o":"m 372 815 l 372 543 q 345 461 372 504 q 283 397 318 418 q 347 334 319 375 q 374 254 374 293 l 374 -19 q 386 -81 374 -65 q 454 -96 399 -96 q 521 -108 500 -96 q 542 -154 542 -121 q 531 -194 542 -172 q 465 -197 497 -197 q 285 -158 333 -197 q 236 -35 236 -119 l 236 251 q 197 320 236 288 q 82 353 158 353 l 82 443 q 198 476 158 443 q 238 546 238 510 l 238 831 q 285 954 238 915 q 465 993 333 993 q 531 990 497 993 q 542 949 542 968 q 521 903 542 915 q 454 890 500 890 q 385 875 399 890 q 372 815 372 860 z "},"|":{"ha":743,"x_min":307,"x_max":436,"o":"m 318 -12 l 318 783 q 307 1019 318 946 q 371 1024 329 1024 q 435 971 435 1024 q 430 871 435 964 q 425 733 425 778 l 425 -75 q 436 -342 425 -242 q 372 -346 414 -346 q 308 -293 308 -346 q 313 -172 308 -286 q 318 -12 318 -58 z "},"}":{"ha":575,"x_min":35,"x_max":494,"o":"m 204 543 l 204 815 q 191 875 204 860 q 122 890 178 890 q 56 903 76 890 q 35 949 35 915 q 46 990 35 968 q 111 993 79 993 q 291 954 243 993 q 339 831 339 915 l 339 546 q 378 476 339 510 q 494 443 418 443 l 494 353 q 379 320 418 353 q 340 251 340 288 l 340 -35 q 292 -158 340 -119 q 111 -197 243 -197 q 46 -194 79 -197 q 35 -154 35 -172 q 56 -108 35 -121 q 122 -96 76 -96 q 190 -81 178 -96 q 203 -19 203 -65 l 203 254 q 230 334 203 293 q 293 397 257 375 q 231 461 258 418 q 204 543 204 504 z "},"~":{"ha":774,"x_min":47,"x_max":726,"o":"m 47 374 q 218 468 47 468 q 399 441 297 468 q 553 414 500 414 q 682 478 617 414 q 726 385 726 422 q 676 312 726 335 q 553 289 626 289 q 399 316 503 289 q 240 343 296 343 q 93 279 157 343 q 47 374 47 339 z "},"¡":{"ha":428,"x_min":106,"x_max":310,"o":"m 206 476 q 135 504 164 476 q 106 575 106 532 q 136 645 106 617 q 208 674 167 674 q 278 645 249 674 q 307 575 307 617 q 276 505 307 533 q 206 476 246 476 m 128 -228 q 140 -63 129 -175 q 151 125 151 49 q 131 336 151 281 q 203 354 171 354 q 282 285 281 354 q 284 136 283 242 q 286 -34 285 31 q 293 -175 288 -99 q 310 -293 299 -251 q 214 -304 249 -304 q 128 -228 128 -304 z "},"¢":{"ha":743,"x_min":90,"x_max":693,"o":"m 240 453 q 381 204 240 263 l 381 697 q 279 615 318 681 q 240 453 240 550 m 693 215 q 619 128 693 163 q 457 94 544 94 q 464 -19 458 21 l 436 -22 q 381 15 381 -22 l 381 100 q 173 209 256 121 q 90 456 90 297 q 172 694 90 607 q 381 806 254 782 q 374 946 381 831 q 406 950 394 950 q 457 913 457 950 l 457 813 q 615 778 536 811 q 693 690 693 744 q 599 614 693 632 q 457 714 536 711 l 457 193 q 530 216 499 194 q 599 290 561 238 q 668 260 643 281 q 693 215 693 239 z "},"£":{"ha":743,"x_min":88,"x_max":674,"o":"m 600 511 q 578 463 600 474 q 507 451 556 451 q 440 453 472 451 q 444 404 444 429 q 247 93 444 261 q 332 92 276 92 q 642 142 510 92 q 674 74 674 107 q 622 15 674 33 q 415 -4 572 -4 q 106 15 211 -4 q 88 82 88 38 q 237 221 183 139 q 290 374 290 303 q 279 456 290 415 q 132 450 183 456 q 124 483 124 472 q 127 503 124 494 q 140 516 131 511 q 156 524 149 521 q 178 529 164 528 q 200 531 192 531 q 225 533 208 532 q 249 533 242 533 q 236 560 246 540 q 222 590 226 581 q 211 618 218 600 q 201 649 204 636 q 194 676 197 661 q 192 706 192 692 q 258 863 192 790 q 424 936 324 936 q 513 913 472 936 q 553 847 553 890 q 471 769 553 797 q 393 825 440 825 q 347 805 365 825 q 328 746 328 785 q 368 626 328 706 q 413 538 408 547 q 592 556 506 543 q 600 511 600 538 z "},"¥":{"ha":743,"x_min":15,"x_max":717,"o":"m 308 74 q 310 267 310 165 q 83 258 167 267 q 75 293 75 274 q 135 340 75 340 l 311 340 l 311 415 q 83 407 168 415 q 75 443 75 425 q 135 490 75 490 l 279 490 q 224 584 261 519 q 170 676 188 649 q 124 744 153 703 q 70 813 96 786 q 15 863 44 840 q 117 929 58 929 q 196 876 158 929 q 401 542 294 736 q 524 756 464 632 q 588 929 585 881 q 631 935 608 935 q 717 871 717 935 q 646 716 717 840 q 500 490 575 592 q 685 500 600 490 l 692 465 q 632 415 692 415 l 449 415 l 449 340 q 685 349 593 340 l 692 317 q 632 267 692 267 l 449 267 q 474 15 449 97 q 399 -4 432 -4 q 328 15 349 -4 q 308 74 308 35 z "},"¦":{"ha":743,"x_min":307,"x_max":436,"o":"m 318 785 q 307 1019 318 946 q 371 1024 329 1024 q 435 971 435 1024 q 430 871 435 964 q 425 733 425 778 l 425 678 q 436 411 425 511 q 372 407 414 407 q 308 460 308 407 q 313 603 308 467 q 318 785 318 739 m 318 -25 l 318 29 q 307 267 318 193 q 371 271 329 271 q 435 218 435 271 q 430 119 435 211 q 425 -19 425 26 l 425 -75 q 436 -342 425 -242 q 372 -346 414 -346 q 308 -293 308 -346 q 313 -181 308 -287 q 318 -25 318 -75 z "},"§":{"ha":633,"x_min":53,"x_max":575,"o":"m 194 488 q 238 404 194 439 q 350 340 281 369 q 442 293 419 310 q 447 340 447 310 q 419 414 447 383 q 354 460 390 444 q 271 495 318 475 q 200 535 224 515 q 194 488 194 518 m 67 463 q 140 600 67 557 q 97 733 97 651 q 166 879 97 824 q 347 935 235 935 q 487 903 418 935 q 556 817 556 872 q 454 743 556 768 q 397 810 438 785 q 314 836 357 836 q 250 815 276 836 q 224 753 224 794 q 260 661 224 699 q 348 600 296 624 q 451 551 400 576 q 539 478 503 525 q 575 365 575 432 q 503 228 575 286 q 547 100 547 174 q 479 -47 547 14 q 289 -108 411 -108 q 124 -74 196 -108 q 53 11 53 -39 q 78 55 53 39 q 154 86 104 71 q 318 -10 186 -10 q 417 86 417 -10 q 381 176 417 140 q 293 234 344 213 q 190 279 242 256 q 103 349 139 303 q 67 463 67 394 z "},"¨":{"ha":379,"x_min":-36,"x_max":429,"o":"m 328 722 q 257 750 286 722 q 228 821 228 778 q 258 891 228 863 q 331 919 289 919 q 400 891 371 919 q 429 821 429 863 q 399 751 429 779 q 328 722 368 722 m 64 722 q -7 750 22 722 q -36 821 -36 778 q -6 891 -36 863 q 67 919 25 919 q 136 891 107 919 q 165 821 165 863 q 135 751 165 779 q 64 722 104 722 z "},"©":{"ha":1192,"x_min":181,"x_max":1142,"o":"m 1042 444 q 931 742 1042 628 q 663 857 821 857 q 391 743 501 857 q 281 444 281 629 q 391 146 281 260 q 663 32 501 32 q 931 146 821 32 q 1042 444 1042 260 m 1142 444 q 1002 94 1142 236 q 663 -47 863 -47 q 319 94 458 -47 q 181 444 181 235 q 319 796 181 656 q 663 936 458 936 q 1003 796 864 936 q 1142 444 1142 656 m 871 224 q 814 160 871 188 q 679 133 757 133 q 571 149 622 133 q 473 199 519 165 q 399 297 426 233 q 371 443 371 360 q 463 683 371 601 q 671 765 554 765 q 756 753 713 765 q 836 713 800 742 q 872 644 872 685 q 771 576 872 590 q 728 642 760 619 q 661 664 696 664 q 568 607 606 664 q 531 458 531 550 q 578 288 531 342 q 692 235 626 235 q 814 299 767 235 q 871 224 871 264 z "},"ª":{"ha":428,"x_min":29,"x_max":397,"o":"m 397 389 q 378 353 397 367 q 325 340 358 340 q 260 344 307 340 q 189 347 214 347 l 176 347 q 36 332 113 347 q 29 375 29 357 q 101 424 29 424 q 158 421 113 424 q 233 418 204 418 l 258 418 q 388 432 328 418 q 397 389 397 410 m 146 629 q 158 589 146 603 q 190 575 171 575 q 251 600 225 575 l 251 685 q 172 663 197 674 q 146 629 146 651 m 203 893 q 323 863 285 893 q 361 760 361 833 q 360 697 361 728 q 360 660 360 665 q 375 525 360 569 q 318 514 342 514 q 283 519 294 514 q 267 544 272 525 q 164 508 225 508 q 72 535 110 508 q 35 626 35 563 q 124 721 35 697 q 256 732 168 732 q 243 806 256 786 q 192 825 231 825 q 153 810 174 825 q 129 774 133 796 q 47 818 47 779 q 94 872 47 851 q 203 893 142 893 z "},"«":{"ha":724,"x_min":47,"x_max":653,"o":"m 347 553 q 299 461 347 533 q 203 331 251 389 q 299 202 251 274 q 347 110 347 131 q 294 53 347 86 q 47 331 194 136 q 294 610 189 522 q 347 553 347 576 m 653 553 q 605 461 653 533 q 508 331 557 389 q 605 202 557 274 q 653 110 653 131 q 600 53 653 86 q 353 331 500 136 q 600 610 494 522 q 653 553 653 576 z "},"¬":{"ha":743,"x_min":24,"x_max":606,"o":"m 603 461 l 606 150 q 589 88 606 106 q 524 69 572 69 q 454 89 490 69 q 476 332 476 164 l 476 369 l 192 369 q 40 340 122 369 q 24 400 24 381 q 104 461 24 461 l 603 461 z "},"®":{"ha":813,"x_min":118,"x_max":753,"o":"m 603 427 q 637 462 603 427 q 671 611 671 497 q 603 795 671 725 q 436 865 535 865 q 268 795 336 865 q 200 611 200 725 q 268 427 200 497 q 436 357 336 357 q 603 427 535 357 m 660 842 q 707 795 660 842 q 753 611 753 749 q 660 381 753 474 q 436 288 568 288 q 210 381 301 288 q 118 611 118 474 q 210 842 118 750 q 436 935 301 935 q 660 842 568 935 m 431 626 q 485 678 485 626 q 466 719 485 703 q 421 735 447 735 l 403 735 l 403 628 q 431 626 408 626 m 590 494 q 596 472 596 483 q 582 448 596 457 q 549 439 568 439 q 493 464 514 439 q 403 582 433 526 l 403 550 q 415 456 403 492 q 364 442 389 442 q 299 483 299 442 q 300 525 299 496 q 301 565 301 554 l 301 658 q 294 778 301 731 q 429 786 399 786 q 585 678 585 786 q 501 581 585 607 q 565 500 511 561 q 590 494 571 494 z "},"¯":{"ha":417,"x_min":0,"x_max":417,"o":"m 417 826 q 353 765 417 765 q 280 769 332 765 q 196 774 228 774 l 168 774 q 6 763 83 774 q 0 813 0 789 q 64 874 0 874 q 126 869 71 874 q 203 865 182 865 q 413 876 317 865 q 417 826 417 849 z "},"°":{"ha":583,"x_min":67,"x_max":490,"o":"m 167 760 q 195 664 167 701 q 276 626 224 626 q 359 666 329 626 q 389 765 389 706 q 361 861 389 824 q 282 899 333 899 q 197 859 226 899 q 167 760 167 819 m 67 760 q 127 915 67 853 q 283 976 188 976 q 432 916 374 976 q 490 767 490 856 q 431 610 490 671 q 276 549 371 549 q 126 608 185 549 q 67 760 67 668 z "},"±":{"ha":743,"x_min":65,"x_max":678,"o":"m 643 131 q 651 76 651 106 q 631 28 651 47 q 579 8 611 8 q 475 14 553 8 q 368 19 397 19 q 72 6 222 19 q 65 60 65 39 q 83 107 65 86 q 138 128 100 128 q 225 123 146 128 q 365 118 304 118 q 643 131 542 118 m 364 675 q 420 658 397 675 q 443 615 443 642 q 438 536 443 589 q 433 456 433 483 q 671 469 565 456 q 678 415 678 446 q 658 367 678 388 q 607 347 639 347 q 517 352 579 347 q 432 357 456 357 q 444 175 432 263 q 379 167 404 167 q 324 182 347 167 q 300 226 300 197 q 304 275 300 240 q 308 358 308 310 q 71 346 196 357 q 65 399 65 374 q 83 446 65 425 q 138 467 100 467 q 217 462 167 467 q 310 457 267 457 q 299 665 310 579 q 364 675 326 675 z "},"²":{"ha":632,"x_min":71,"x_max":556,"o":"m 156 757 q 94 801 94 761 q 162 890 94 844 q 311 935 229 935 q 457 888 401 935 q 513 765 513 840 q 438 581 513 681 q 214 400 363 482 l 285 400 q 526 433 460 400 q 556 368 556 399 q 524 322 556 333 q 318 306 475 306 q 131 308 206 306 q 71 376 71 308 q 72 407 71 401 q 306 586 226 493 q 386 754 386 679 q 356 821 386 796 q 274 846 325 846 q 209 821 243 846 q 156 757 175 796 z "},"³":{"ha":589,"x_min":71,"x_max":507,"o":"m 183 635 q 185 658 183 650 q 324 685 278 663 q 369 768 369 708 q 268 846 369 846 q 138 779 192 846 q 92 835 92 800 q 159 904 92 874 q 292 935 226 935 q 445 894 394 935 q 496 786 496 854 q 376 636 496 675 q 475 573 443 615 q 507 478 507 531 q 442 346 507 403 q 254 289 376 289 q 126 313 182 289 q 71 375 71 336 q 114 431 71 408 q 247 378 167 378 q 343 405 306 378 q 381 478 381 432 q 217 597 381 597 q 192 604 200 597 q 183 635 183 611 z "},"´":{"ha":314,"x_min":71,"x_max":372,"o":"m 335 869 q 230 806 310 850 q 113 726 150 761 q 71 794 71 764 q 85 826 71 813 q 122 853 99 839 q 194 909 146 867 q 297 1011 243 951 q 372 929 372 972 q 335 869 372 896 z "},"µ":{"ha":729,"x_min":65,"x_max":658,"o":"m 85 186 q 87 292 85 197 q 89 429 89 388 q 65 639 89 558 q 142 651 103 651 q 215 635 193 651 q 238 579 238 618 q 233 389 238 507 q 229 235 229 271 q 259 126 229 164 q 336 89 289 89 q 490 160 417 89 q 489 336 489 217 q 479 646 489 531 q 549 651 518 651 q 638 597 638 651 q 635 465 638 572 q 632 283 632 358 q 658 11 632 110 q 589 -4 629 -4 q 547 -1 563 -4 q 518 19 532 3 q 500 65 504 35 q 410 9 464 32 q 304 -14 356 -14 q 214 8 263 -14 q 208 -65 208 -24 q 224 -220 208 -140 q 256 -336 239 -300 q 176 -350 214 -350 q 101 -331 121 -350 q 82 -268 82 -312 q 85 186 82 -100 z "},"¶":{"ha":718,"x_min":53,"x_max":694,"o":"m 446 696 q 372 700 408 696 q 360 326 360 565 q 290 292 360 292 q 123 360 193 292 q 53 539 53 429 q 129 728 53 658 q 321 799 206 799 q 440 796 358 799 q 547 793 522 793 q 685 794 643 793 q 694 751 694 769 q 585 694 694 694 q 568 232 568 497 q 571 92 568 214 q 574 -94 574 -31 q 556 -154 574 -133 q 485 -175 538 -175 q 406 -162 438 -175 q 432 156 432 -90 q 446 696 432 282 z "},"·":{"ha":296,"x_min":47,"x_max":249,"o":"m 149 257 q 76 287 106 257 q 47 363 47 317 q 77 438 47 407 q 149 469 107 469 q 219 438 190 469 q 249 363 249 407 q 219 287 249 317 q 149 257 190 257 z "},"¸":{"ha":256,"x_min":35,"x_max":290,"o":"m 125 44 l 203 33 q 176 -54 176 -46 q 208 -81 176 -62 q 290 -193 290 -124 q 238 -294 290 -250 q 106 -339 185 -339 q 35 -294 35 -339 q 69 -236 35 -268 q 124 -256 92 -256 q 175 -212 175 -256 q 127 -150 175 -183 q 79 -86 79 -117 q 125 44 79 -40 z "},"¹":{"ha":531,"x_min":82,"x_max":447,"o":"m 339 390 q 442 396 389 390 q 447 361 447 376 q 399 303 447 303 q 328 304 389 303 q 210 306 268 306 q 90 304 133 306 q 83 340 83 328 q 157 394 83 394 l 214 394 q 215 494 214 408 q 217 640 217 581 q 213 840 217 753 q 90 814 118 824 q 82 854 82 835 q 135 915 82 906 q 282 935 239 935 q 339 889 339 935 q 337 840 339 882 q 333 736 335 799 q 331 618 331 674 l 331 554 q 339 390 331 446 z "},"º":{"ha":475,"x_min":42,"x_max":433,"o":"m 421 389 q 401 353 421 367 q 349 340 382 340 q 284 344 331 340 q 213 347 238 347 l 200 347 q 60 332 136 347 q 53 375 53 357 q 125 424 53 424 q 182 421 136 424 q 257 418 228 418 l 282 418 q 411 432 351 418 q 421 389 421 410 m 325 689 q 301 785 325 747 q 236 824 278 824 q 174 793 196 824 q 151 711 151 763 q 174 615 151 653 q 236 578 196 578 q 302 608 279 578 q 325 689 325 639 m 236 508 q 95 560 149 508 q 42 700 42 613 q 95 840 42 788 q 236 893 149 893 q 380 841 326 893 q 433 700 433 789 q 380 560 433 613 q 236 508 326 508 z "},"»":{"ha":724,"x_min":47,"x_max":653,"o":"m 353 108 q 401 200 353 128 q 497 331 449 272 q 401 459 449 388 q 353 551 353 531 q 406 608 353 575 q 653 331 506 525 q 406 51 511 139 q 353 108 353 85 m 47 108 q 95 200 47 128 q 192 331 143 272 q 95 459 143 388 q 47 551 47 531 q 100 608 47 575 q 347 331 200 525 q 100 51 206 139 q 47 108 47 85 z "},"¼":{"ha":1313,"x_min":82,"x_max":1229,"o":"m 950 260 l 1013 260 q 1014 392 1013 318 q 1015 485 1015 465 q 839 261 922 392 q 950 260 869 260 m 339 390 q 442 396 389 390 q 447 361 447 376 q 399 303 447 303 q 328 304 389 303 q 210 306 268 306 q 90 304 133 306 q 83 340 83 328 q 157 394 83 394 l 214 394 q 215 494 214 408 q 217 640 217 581 q 213 840 217 753 q 90 814 118 824 q 82 854 82 835 q 135 915 82 906 q 282 935 239 935 q 339 889 339 935 q 337 840 339 882 q 333 736 335 799 q 331 618 331 674 l 331 554 q 339 390 331 446 m 408 -149 q 319 -104 319 -149 q 335 -60 319 -93 q 472 214 351 -26 q 733 735 617 501 q 871 1028 825 919 q 958 982 958 1025 q 941 934 958 971 q 817 685 924 897 q 546 144 669 392 q 408 -149 450 -49 m 1015 613 q 1097 628 1033 628 q 1135 625 1113 628 q 1132 574 1135 621 q 1126 442 1129 526 q 1124 265 1124 357 q 1218 283 1192 269 q 1229 235 1229 261 q 1204 183 1229 192 q 1124 171 1182 172 q 1146 -3 1124 68 q 1089 -14 1117 -14 q 1026 3 1042 -14 q 1010 58 1010 19 q 1011 106 1010 81 q 1013 169 1013 132 q 761 179 829 169 q 735 235 735 181 q 736 269 735 260 q 870 456 785 353 q 1015 613 956 560 z "},"½":{"ha":1371,"x_min":82,"x_max":1294,"o":"m 894 450 q 833 494 833 454 q 901 583 833 538 q 1050 628 968 628 q 1196 581 1140 628 q 1251 458 1251 533 q 1176 274 1251 374 q 953 93 1101 175 l 1024 93 q 1265 126 1199 93 q 1294 61 1294 92 q 1263 15 1294 26 q 1057 -1 1214 -1 q 869 1 944 -1 q 810 69 810 1 q 811 100 810 94 q 1045 279 965 186 q 1125 447 1125 372 q 1094 514 1125 489 q 1013 539 1064 539 q 948 514 982 539 q 894 450 914 489 m 339 390 q 442 396 389 390 q 447 361 447 376 q 399 303 447 303 q 328 304 389 303 q 210 306 268 306 q 90 304 133 306 q 83 340 83 328 q 157 394 83 394 l 214 394 q 215 494 214 408 q 217 640 217 581 q 213 840 217 753 q 90 814 118 824 q 82 854 82 835 q 135 915 82 906 q 282 935 239 935 q 339 889 339 935 q 337 840 339 882 q 333 736 335 799 q 331 618 331 674 l 331 554 q 339 390 331 446 m 408 -149 q 319 -104 319 -149 q 335 -60 319 -93 q 472 214 351 -26 q 733 735 617 501 q 871 1028 825 919 q 958 982 958 1025 q 941 934 958 971 q 817 685 924 897 q 546 144 669 392 q 408 -149 450 -49 z "},"¾":{"ha":1338,"x_min":71,"x_max":1256,"o":"m 976 260 l 1039 260 q 1040 392 1039 318 q 1042 485 1042 465 q 865 261 947 392 q 976 260 896 260 m 1042 613 q 1124 628 1060 628 q 1161 625 1139 628 q 1158 574 1161 621 q 1153 442 1156 526 q 1150 265 1150 357 q 1244 283 1218 269 q 1256 235 1256 261 q 1231 183 1256 192 q 1150 171 1208 172 q 1172 -3 1150 68 q 1115 -14 1143 -14 q 1052 3 1068 -14 q 1036 58 1036 19 q 1038 106 1036 81 q 1039 169 1039 132 q 788 179 856 169 q 761 235 761 181 q 763 269 761 260 q 897 456 811 353 q 1042 613 982 560 m 183 635 q 185 658 183 650 q 324 685 278 663 q 369 768 369 708 q 268 846 369 846 q 138 779 192 846 q 92 835 92 800 q 159 904 92 874 q 292 935 226 935 q 445 894 394 935 q 496 786 496 854 q 376 636 496 675 q 475 573 443 615 q 507 478 507 531 q 442 346 507 403 q 254 289 376 289 q 126 313 182 289 q 71 375 71 336 q 114 431 71 408 q 247 378 167 378 q 343 405 306 378 q 381 478 381 432 q 217 597 381 597 q 192 604 200 597 q 183 635 183 611 m 438 -149 q 349 -104 349 -149 q 365 -60 349 -93 q 501 214 381 -26 q 763 735 646 501 q 900 1028 856 919 q 988 982 988 1025 q 970 934 988 971 q 846 685 953 897 q 575 144 699 392 q 438 -149 479 -49 z "},"¿":{"ha":524,"x_min":24,"x_max":507,"o":"m 286 476 q 215 504 244 476 q 186 575 186 532 q 217 645 186 617 q 289 674 247 674 q 358 645 329 674 q 388 575 388 617 q 357 505 388 533 q 286 476 326 476 m 378 263 q 360 188 378 225 q 324 130 342 150 q 271 71 307 110 q 221 15 238 36 q 188 -42 204 -6 q 171 -117 171 -78 q 196 -185 171 -162 q 263 -208 221 -208 q 349 -179 308 -208 q 403 -103 390 -150 q 507 -176 507 -119 q 440 -270 507 -235 q 282 -306 374 -306 q 97 -256 171 -306 q 24 -115 24 -207 q 45 -16 24 -62 q 88 55 67 31 q 149 114 110 79 q 190 154 176 139 q 219 198 204 169 q 233 254 233 226 q 218 331 233 285 q 293 354 257 354 q 378 263 378 354 z "},"À":{"ha":796,"x_min":6,"x_max":818,"o":"m 276 1271 q 393 1165 332 1211 q 481 1099 454 1119 q 508 1056 508 1078 q 464 994 508 1024 q 349 1065 421 1026 q 241 1130 278 1103 q 204 1186 204 1157 q 276 1271 204 1235 m 519 381 q 478 499 499 438 q 436 632 458 561 q 406 729 414 703 q 283 382 339 519 q 419 379 372 379 q 519 381 492 379 m 390 276 q 240 279 354 276 q 129 -29 150 47 q 6 28 6 -15 q 65 185 6 47 q 208 538 124 324 q 342 917 293 751 q 414 921 369 921 q 470 906 450 921 q 506 847 490 892 q 661 389 613 514 q 818 14 765 118 q 729 -14 765 -14 q 649 24 671 -14 q 602 151 632 67 q 556 279 572 235 q 390 276 419 276 z "},"Á":{"ha":796,"x_min":6,"x_max":818,"o":"m 586 1138 q 481 1074 561 1118 q 364 994 401 1029 q 322 1063 322 1032 q 336 1094 322 1081 q 374 1121 350 1107 q 446 1177 397 1135 q 549 1279 494 1219 q 624 1197 624 1240 q 586 1138 624 1164 m 519 381 q 478 499 499 438 q 436 632 458 561 q 406 729 414 703 q 283 382 339 519 q 419 379 372 379 q 519 381 492 379 m 390 276 q 240 279 354 276 q 129 -29 150 47 q 6 28 6 -15 q 65 185 6 47 q 208 538 124 324 q 342 917 293 751 q 414 921 369 921 q 470 906 450 921 q 506 847 490 892 q 661 389 613 514 q 818 14 765 118 q 729 -14 765 -14 q 649 24 671 -14 q 602 151 632 67 q 556 279 572 235 q 390 276 419 276 z "},"Â":{"ha":796,"x_min":6,"x_max":818,"o":"m 615 1051 q 564 989 615 1022 q 506 1048 540 1018 q 447 1094 471 1078 l 424 1110 q 265 1006 303 1006 q 208 1042 236 1006 q 425 1243 311 1163 q 615 1051 615 1111 m 519 381 q 478 499 499 438 q 436 632 458 561 q 406 729 414 703 q 283 382 339 519 q 419 379 372 379 q 519 381 492 379 m 390 276 q 240 279 354 276 q 129 -29 150 47 q 6 28 6 -15 q 65 185 6 47 q 208 538 124 324 q 342 917 293 751 q 414 921 369 921 q 470 906 450 921 q 506 847 490 892 q 661 389 613 514 q 818 14 765 118 q 729 -14 765 -14 q 649 24 671 -14 q 602 151 632 67 q 556 279 572 235 q 390 276 419 276 z "},"Ã":{"ha":796,"x_min":6,"x_max":818,"o":"m 519 381 q 478 499 499 438 q 436 632 458 561 q 406 729 414 703 q 283 382 339 519 q 419 379 372 379 q 519 381 492 379 m 390 276 q 240 279 354 276 q 129 -29 150 47 q 6 28 6 -15 q 65 185 6 47 q 208 538 124 324 q 342 917 293 751 q 414 921 369 921 q 470 906 450 921 q 506 847 490 892 q 661 389 613 514 q 818 14 765 118 q 729 -14 765 -14 q 649 24 671 -14 q 602 151 632 67 q 556 279 572 235 q 390 276 419 276 m 619 1117 q 573 1036 619 1075 q 471 997 526 997 q 378 1028 431 997 q 315 1058 325 1058 q 244 994 296 1058 q 197 1047 197 1015 q 244 1124 197 1088 q 347 1160 290 1160 q 433 1129 381 1160 q 500 1099 485 1099 q 571 1161 526 1099 q 619 1117 619 1147 z "},"Ä":{"ha":796,"x_min":6,"x_max":818,"o":"m 538 989 q 467 1017 496 989 q 438 1088 438 1044 q 468 1158 438 1129 q 540 1186 499 1186 q 610 1158 581 1186 q 639 1088 639 1129 q 608 1017 639 1046 q 538 989 578 989 m 274 989 q 203 1017 232 989 q 174 1088 174 1044 q 204 1158 174 1129 q 276 1186 235 1186 q 346 1158 317 1186 q 375 1088 375 1129 q 344 1017 375 1046 q 274 989 314 989 m 519 381 q 478 499 499 438 q 436 632 458 561 q 406 729 414 703 q 283 382 339 519 q 419 379 372 379 q 519 381 492 379 m 390 276 q 240 279 354 276 q 129 -29 150 47 q 6 28 6 -15 q 65 185 6 47 q 208 538 124 324 q 342 917 293 751 q 414 921 369 921 q 470 906 450 921 q 506 847 490 892 q 661 389 613 514 q 818 14 765 118 q 729 -14 765 -14 q 649 24 671 -14 q 602 151 632 67 q 556 279 572 235 q 390 276 419 276 z "},"Å":{"ha":796,"x_min":6,"x_max":818,"o":"m 463 1115 q 449 1167 463 1147 q 413 1188 436 1188 q 360 1128 360 1188 q 374 1077 360 1097 q 413 1057 389 1057 q 463 1115 463 1057 m 506 1026 q 489 1008 506 1026 q 413 990 471 990 q 317 1026 354 990 q 281 1122 281 1063 q 317 1218 281 1182 q 413 1254 354 1254 q 506 1218 471 1254 q 542 1122 542 1182 q 506 1026 542 1063 m 519 381 q 478 499 499 438 q 436 632 458 561 q 406 729 414 703 q 283 382 339 519 q 419 379 372 379 q 519 381 492 379 m 390 276 q 240 279 354 276 q 129 -29 150 47 q 6 28 6 -15 q 65 185 6 47 q 208 538 124 324 q 342 917 293 751 q 414 921 369 921 q 470 906 450 921 q 506 847 490 892 q 661 389 613 514 q 818 14 765 118 q 729 -14 765 -14 q 649 24 671 -14 q 602 151 632 67 q 556 279 572 235 q 390 276 419 276 z "},"Æ":{"ha":1101,"x_min":0,"x_max":1067,"o":"m 319 381 q 461 379 367 379 l 517 379 l 517 474 q 511 782 517 690 q 319 381 381 497 m 657 810 q 663 550 663 756 l 767 550 q 925 556 878 550 q 931 511 931 543 q 917 458 931 472 q 872 442 903 443 q 779 440 838 440 l 663 440 q 672 108 663 164 q 768 106 731 106 q 1056 136 990 106 q 1067 63 1067 104 q 1054 18 1067 31 q 817 -3 1028 -3 q 586 0 628 -3 q 528 19 543 1 q 514 79 514 36 q 517 276 514 129 l 422 276 q 264 279 333 276 q 216 191 253 258 q 158 79 179 124 q 119 -11 138 35 q 26 16 53 -1 q 0 63 0 33 q 13 97 0 71 q 50 168 25 124 q 98 253 75 213 q 156 353 121 293 q 211 447 192 414 q 436 897 347 689 q 815 925 538 925 q 1053 904 1026 925 q 1065 860 1065 892 q 1054 785 1065 818 q 804 814 976 814 q 657 810 733 814 z "},"Ç":{"ha":846,"x_min":58,"x_max":793,"o":"m 718 215 q 771 176 749 200 q 793 125 793 151 q 715 28 793 69 q 517 -14 638 -12 q 508 -54 508 -44 q 540 -81 508 -62 q 622 -193 622 -124 q 569 -294 622 -250 q 438 -339 517 -339 q 367 -294 367 -339 q 401 -236 367 -268 q 456 -256 424 -256 q 507 -212 507 -256 q 459 -150 507 -183 q 411 -86 411 -117 q 432 -8 411 -60 q 159 142 260 15 q 58 461 58 269 q 181 809 58 683 q 514 935 304 935 q 703 891 626 935 q 779 783 779 847 q 752 725 779 750 q 669 692 725 700 q 595 791 649 757 q 483 825 542 825 q 291 729 365 825 q 217 488 217 633 q 292 208 217 319 q 506 96 368 96 q 626 126 568 96 q 718 215 685 156 z "},"È":{"ha":682,"x_min":78,"x_max":647,"o":"m 196 1271 q 313 1165 251 1211 q 401 1099 374 1119 q 428 1056 428 1078 q 383 994 428 1024 q 269 1065 340 1026 q 160 1130 197 1103 q 124 1186 124 1157 q 196 1271 124 1235 m 238 810 q 243 550 243 756 l 347 550 q 506 556 458 550 q 511 511 511 543 q 497 458 511 472 q 453 442 483 443 q 360 440 418 440 l 243 440 q 253 108 243 164 q 349 106 311 106 q 636 136 571 106 q 647 63 647 104 q 635 18 647 31 q 397 -3 608 -3 q 167 0 208 -3 q 109 19 124 1 q 94 79 94 36 q 96 193 94 106 q 97 328 97 281 l 97 597 q 78 913 97 792 q 388 925 229 925 q 619 904 593 925 q 632 860 632 892 q 621 785 632 818 q 379 814 544 814 q 238 810 313 814 z "},"É":{"ha":682,"x_min":78,"x_max":647,"o":"m 532 1138 q 427 1074 507 1118 q 310 994 347 1029 q 268 1063 268 1032 q 282 1094 268 1081 q 319 1121 296 1107 q 392 1177 343 1135 q 494 1279 440 1219 q 569 1197 569 1240 q 532 1138 569 1164 m 238 810 q 243 550 243 756 l 347 550 q 506 556 458 550 q 511 511 511 543 q 497 458 511 472 q 453 442 483 443 q 360 440 418 440 l 243 440 q 253 108 243 164 q 349 106 311 106 q 636 136 571 106 q 647 63 647 104 q 635 18 647 31 q 397 -3 608 -3 q 167 0 208 -3 q 109 19 124 1 q 94 79 94 36 q 96 193 94 106 q 97 328 97 281 l 97 597 q 78 913 97 792 q 388 925 229 925 q 619 904 593 925 q 632 860 632 892 q 621 785 632 818 q 379 814 544 814 q 238 810 313 814 z "},"Ê":{"ha":682,"x_min":78,"x_max":647,"o":"m 544 1051 q 493 989 544 1022 q 435 1048 469 1018 q 376 1094 400 1078 l 353 1110 q 194 1006 232 1006 q 138 1042 164 1006 q 354 1243 240 1163 q 544 1051 544 1111 m 238 810 q 243 550 243 756 l 347 550 q 506 556 458 550 q 511 511 511 543 q 497 458 511 472 q 453 442 483 443 q 360 440 418 440 l 243 440 q 253 108 243 164 q 349 106 311 106 q 636 136 571 106 q 647 63 647 104 q 635 18 647 31 q 397 -3 608 -3 q 167 0 208 -3 q 109 19 124 1 q 94 79 94 36 q 96 193 94 106 q 97 328 97 281 l 97 597 q 78 913 97 792 q 388 925 229 925 q 619 904 593 925 q 632 860 632 892 q 621 785 632 818 q 379 814 544 814 q 238 810 313 814 z "},"Ë":{"ha":682,"x_min":78,"x_max":647,"o":"m 238 810 q 243 550 243 756 l 347 550 q 506 556 458 550 q 511 511 511 543 q 497 458 511 472 q 453 442 483 443 q 360 440 418 440 l 243 440 q 253 108 243 164 q 349 106 311 106 q 636 136 571 106 q 647 63 647 104 q 635 18 647 31 q 397 -3 608 -3 q 167 0 208 -3 q 109 19 124 1 q 94 79 94 36 q 96 193 94 106 q 97 328 97 281 l 97 597 q 78 913 97 792 q 388 925 229 925 q 619 904 593 925 q 632 860 632 892 q 621 785 632 818 q 379 814 544 814 q 238 810 313 814 m 490 989 q 419 1017 449 989 q 390 1088 390 1044 q 421 1158 390 1129 q 493 1186 451 1186 q 563 1158 533 1186 q 592 1088 592 1129 q 561 1017 592 1046 q 490 989 531 989 m 226 989 q 156 1017 185 989 q 126 1088 126 1044 q 157 1158 126 1129 q 229 1186 188 1186 q 299 1158 269 1186 q 328 1088 328 1129 q 297 1017 328 1046 q 226 989 267 989 z "},"Ì":{"ha":343,"x_min":-40,"x_max":265,"o":"m 93 321 l 93 599 q 83 918 93 792 q 157 925 125 925 q 250 872 250 925 q 247 816 250 864 q 242 697 244 768 q 239 561 239 625 l 239 282 q 265 10 239 97 q 179 -4 226 -4 q 109 14 128 -4 q 90 75 90 32 q 92 185 90 97 q 93 321 93 272 m 32 1271 q 149 1165 88 1211 q 237 1099 210 1119 q 264 1056 264 1078 q 219 994 264 1024 q 105 1065 176 1026 q -3 1130 33 1103 q -40 1186 -40 1157 q 32 1271 -40 1235 z "},"Í":{"ha":339,"x_min":78,"x_max":379,"o":"m 106 321 l 106 599 q 96 918 106 792 q 169 925 138 925 q 263 872 263 925 q 260 816 263 864 q 254 697 257 768 q 251 561 251 625 l 251 282 q 278 10 251 97 q 192 -4 239 -4 q 122 14 140 -4 q 103 75 103 32 q 104 185 103 97 q 106 321 106 272 m 342 1138 q 237 1074 317 1118 q 119 994 157 1029 q 78 1063 78 1032 q 92 1094 78 1081 q 129 1121 106 1107 q 201 1177 153 1135 q 304 1279 250 1219 q 379 1197 379 1240 q 342 1138 379 1164 z "},"Î":{"ha":363,"x_min":-28,"x_max":379,"o":"m 108 321 l 108 599 q 99 918 108 792 q 172 925 140 925 q 265 872 265 925 q 263 816 265 864 q 257 697 260 768 q 254 561 254 625 l 254 282 q 281 10 254 97 q 194 -4 242 -4 q 124 14 143 -4 q 106 75 106 32 q 107 185 106 97 q 108 321 108 272 m 379 1051 q 328 989 379 1022 q 269 1048 304 1018 q 211 1094 235 1078 l 188 1110 q 29 1006 67 1006 q -28 1042 0 1006 q 189 1243 75 1163 q 379 1051 379 1111 z "},"Ï":{"ha":351,"x_min":-71,"x_max":394,"o":"m 96 321 l 96 599 q 86 918 96 792 q 160 925 128 925 q 253 872 253 925 q 250 816 253 864 q 244 697 247 768 q 242 561 242 625 l 242 282 q 268 10 242 97 q 182 -4 229 -4 q 112 14 131 -4 q 93 75 93 32 q 94 185 93 97 q 96 321 96 272 m 29 989 q -42 1017 -12 989 q -71 1088 -71 1044 q -40 1158 -71 1129 q 32 1186 -10 1186 q 101 1158 72 1186 q 131 1088 131 1129 q 100 1017 131 1046 q 29 989 69 989 m 293 989 q 222 1017 251 989 q 193 1088 193 1044 q 224 1158 193 1129 q 296 1186 254 1186 q 365 1158 336 1186 q 394 1088 394 1129 q 364 1017 394 1046 q 293 989 333 989 z "},"Ð":{"ha":904,"x_min":-19,"x_max":846,"o":"m 257 822 q 263 610 263 732 l 263 549 l 325 549 q 483 554 440 549 q 489 507 489 532 q 428 440 489 442 q 260 439 388 439 q 243 146 254 251 q 408 97 310 97 q 543 128 486 97 q 630 212 600 160 q 674 320 660 264 q 688 438 688 376 q 597 730 688 632 q 336 828 506 828 q 257 822 310 828 m 96 74 q 117 439 114 201 q -12 433 31 439 q -19 483 -19 451 q 43 547 -19 544 q 118 549 61 549 q 100 918 118 774 q 324 935 188 935 q 526 911 436 935 q 690 835 615 888 q 805 689 764 783 q 846 463 846 594 q 731 120 846 254 q 401 -14 615 -14 q 96 74 204 -14 z "},"Ñ":{"ha":858,"x_min":78,"x_max":781,"o":"m 778 1 q 717 -4 750 -4 q 624 33 647 -4 q 424 368 558 140 q 222 704 289 596 l 229 356 q 257 7 233 75 q 190 -4 226 -4 q 120 14 139 -4 q 101 75 101 32 q 103 185 101 97 q 104 321 104 272 l 104 599 q 78 915 104 831 q 163 926 113 926 q 263 886 226 926 q 456 608 328 814 q 653 261 585 403 q 642 583 642 419 q 632 921 642 790 q 689 925 664 925 q 781 872 781 925 q 778 816 781 864 q 772 697 775 768 q 768 561 768 625 l 768 324 q 778 1 768 128 m 642 1117 q 595 1036 642 1075 q 493 997 549 997 q 400 1028 453 997 q 338 1058 347 1058 q 267 994 318 1058 q 219 1047 219 1015 q 266 1124 219 1088 q 369 1160 313 1160 q 455 1129 403 1160 q 522 1099 507 1099 q 593 1161 549 1099 q 642 1117 642 1147 z "},"Ò":{"ha":994,"x_min":58,"x_max":938,"o":"m 349 1271 q 465 1165 404 1211 q 553 1099 526 1119 q 581 1056 581 1078 q 536 994 581 1024 q 422 1065 493 1026 q 313 1130 350 1103 q 276 1186 276 1157 q 349 1271 276 1235 m 496 -14 q 177 115 296 -14 q 58 460 58 244 q 177 806 58 678 q 496 935 296 935 q 818 806 699 935 q 938 460 938 678 q 817 115 938 244 q 496 -14 697 -14 m 779 436 q 753 620 779 536 q 662 765 728 704 q 499 825 596 825 q 293 734 369 825 q 217 500 217 643 q 242 308 217 396 q 334 158 268 221 q 497 96 400 96 q 706 190 632 96 q 779 436 779 285 z "},"Ó":{"ha":994,"x_min":58,"x_max":938,"o":"m 681 1138 q 576 1074 656 1118 q 458 994 496 1029 q 417 1063 417 1032 q 431 1094 417 1081 q 468 1121 444 1107 q 540 1177 492 1135 q 643 1279 589 1219 q 718 1197 718 1240 q 681 1138 718 1164 m 496 -14 q 177 115 296 -14 q 58 460 58 244 q 177 806 58 678 q 496 935 296 935 q 818 806 699 935 q 938 460 938 678 q 817 115 938 244 q 496 -14 697 -14 m 779 436 q 753 620 779 536 q 662 765 728 704 q 499 825 596 825 q 293 734 369 825 q 217 500 217 643 q 242 308 217 396 q 334 158 268 221 q 497 96 400 96 q 706 190 632 96 q 779 436 779 285 z "},"Ô":{"ha":994,"x_min":58,"x_max":938,"o":"m 694 1051 q 643 989 694 1022 q 585 1048 619 1018 q 526 1094 550 1078 l 503 1110 q 344 1006 382 1006 q 288 1042 314 1006 q 504 1243 390 1163 q 694 1051 694 1111 m 496 -14 q 177 115 296 -14 q 58 460 58 244 q 177 806 58 678 q 496 935 296 935 q 818 806 699 935 q 938 460 938 678 q 817 115 938 244 q 496 -14 697 -14 m 779 436 q 753 620 779 536 q 662 765 728 704 q 499 825 596 825 q 293 734 369 825 q 217 500 217 643 q 242 308 217 396 q 334 158 268 221 q 497 96 400 96 q 706 190 632 96 q 779 436 779 285 z "},"Õ":{"ha":994,"x_min":58,"x_max":938,"o":"m 496 -14 q 177 115 296 -14 q 58 460 58 244 q 177 806 58 678 q 496 935 296 935 q 818 806 699 935 q 938 460 938 678 q 817 115 938 244 q 496 -14 697 -14 m 779 436 q 753 620 779 536 q 662 765 728 704 q 499 825 596 825 q 293 734 369 825 q 217 500 217 643 q 242 308 217 396 q 334 158 268 221 q 497 96 400 96 q 706 190 632 96 q 779 436 779 285 m 708 1117 q 662 1036 708 1075 q 560 997 615 997 q 467 1028 519 997 q 404 1058 414 1058 q 333 994 385 1058 q 286 1047 286 1015 q 333 1124 286 1088 q 436 1160 379 1160 q 522 1129 469 1160 q 589 1099 574 1099 q 660 1161 615 1099 q 708 1117 708 1147 z "},"Ö":{"ha":994,"x_min":58,"x_max":938,"o":"m 496 -14 q 177 115 296 -14 q 58 460 58 244 q 177 806 58 678 q 496 935 296 935 q 818 806 699 935 q 938 460 938 678 q 817 115 938 244 q 496 -14 697 -14 m 779 436 q 753 620 779 536 q 662 765 728 704 q 499 825 596 825 q 293 734 369 825 q 217 500 217 643 q 242 308 217 396 q 334 158 268 221 q 497 96 400 96 q 706 190 632 96 q 779 436 779 285 m 628 989 q 557 1017 586 989 q 528 1088 528 1044 q 558 1158 528 1129 q 631 1186 589 1186 q 700 1158 671 1186 q 729 1088 729 1129 q 699 1017 729 1046 q 628 989 668 989 m 364 989 q 293 1017 322 989 q 264 1088 264 1044 q 294 1158 264 1129 q 367 1186 325 1186 q 436 1158 407 1186 q 465 1088 465 1129 q 435 1017 465 1046 q 364 989 404 989 z "},"×":{"ha":743,"x_min":68,"x_max":675,"o":"m 574 653 q 630 611 604 636 q 656 565 656 586 q 635 525 656 546 q 543 439 615 507 q 450 353 471 371 q 675 144 592 211 q 582 82 642 82 q 535 97 550 82 q 455 183 521 111 q 369 274 389 254 q 165 51 260 165 q 125 80 139 69 q 98 108 111 90 q 85 143 85 125 q 106 182 85 161 q 292 354 122 200 q 68 564 142 497 q 160 628 108 628 q 208 610 190 628 q 371 433 231 588 q 574 653 507 569 z "},"Ø":{"ha":994,"x_min":58,"x_max":938,"o":"m 307 22 l 274 -37 q 235 -117 243 -93 q 171 -74 171 -110 q 206 3 171 -60 l 238 61 q 58 460 58 188 q 177 806 58 678 q 496 935 296 935 q 696 893 604 935 l 729 954 q 768 1033 743 979 q 832 990 832 1026 q 801 921 832 975 l 764 853 q 938 460 938 725 q 817 115 938 244 q 496 -14 697 -14 q 307 22 392 -14 m 217 500 q 306 186 217 296 l 636 785 q 499 825 575 825 q 293 734 369 825 q 217 500 217 643 m 779 436 q 696 729 779 619 l 367 132 q 497 96 422 96 q 706 190 632 96 q 779 436 779 285 z "},"Ù":{"ha":893,"x_min":85,"x_max":815,"o":"m 301 1271 q 418 1165 357 1211 q 506 1099 479 1119 q 533 1056 533 1078 q 489 994 533 1024 q 374 1065 446 1026 q 266 1130 303 1103 q 229 1186 229 1157 q 301 1271 229 1235 m 85 914 q 167 925 121 925 q 244 909 219 925 q 268 854 268 893 q 258 599 268 797 q 247 292 247 401 q 296 152 247 197 q 410 107 344 107 q 535 138 469 107 q 642 211 601 168 q 642 255 642 221 q 642 376 642 289 q 643 599 643 463 q 633 919 643 793 q 710 925 676 925 q 800 872 800 925 q 797 821 800 869 q 792 669 794 772 q 789 429 789 565 q 793 141 789 214 q 815 7 797 68 q 729 -4 785 -4 q 660 13 679 -4 q 640 78 640 31 l 640 104 q 510 19 586 51 q 371 -14 435 -14 q 170 48 244 -14 q 96 267 96 110 q 102 489 96 349 q 108 696 108 629 q 85 914 108 828 z "},"Ú":{"ha":893,"x_min":85,"x_max":815,"o":"m 643 1138 q 538 1074 618 1118 q 421 994 458 1029 q 379 1063 379 1032 q 393 1094 379 1081 q 431 1121 407 1107 q 503 1177 454 1135 q 606 1279 551 1219 q 681 1197 681 1240 q 643 1138 681 1164 m 85 914 q 167 925 121 925 q 244 909 219 925 q 268 854 268 893 q 258 599 268 797 q 247 292 247 401 q 296 152 247 197 q 410 107 344 107 q 535 138 469 107 q 642 211 601 168 q 642 255 642 221 q 642 376 642 289 q 643 599 643 463 q 633 919 643 793 q 710 925 676 925 q 800 872 800 925 q 797 821 800 869 q 792 669 794 772 q 789 429 789 565 q 793 141 789 214 q 815 7 797 68 q 729 -4 785 -4 q 660 13 679 -4 q 640 78 640 31 l 640 104 q 510 19 586 51 q 371 -14 435 -14 q 170 48 244 -14 q 96 267 96 110 q 102 489 96 349 q 108 696 108 629 q 85 914 108 828 z "},"Û":{"ha":893,"x_min":85,"x_max":815,"o":"m 649 1051 q 597 989 649 1022 q 539 1048 574 1018 q 481 1094 504 1078 l 457 1110 q 299 1006 336 1006 q 242 1042 269 1006 q 458 1243 344 1163 q 649 1051 649 1111 m 85 914 q 167 925 121 925 q 244 909 219 925 q 268 854 268 893 q 258 599 268 797 q 247 292 247 401 q 296 152 247 197 q 410 107 344 107 q 535 138 469 107 q 642 211 601 168 q 642 255 642 221 q 642 376 642 289 q 643 599 643 463 q 633 919 643 793 q 710 925 676 925 q 800 872 800 925 q 797 821 800 869 q 792 669 794 772 q 789 429 789 565 q 793 141 789 214 q 815 7 797 68 q 729 -4 785 -4 q 660 13 679 -4 q 640 78 640 31 l 640 104 q 510 19 586 51 q 371 -14 435 -14 q 170 48 244 -14 q 96 267 96 110 q 102 489 96 349 q 108 696 108 629 q 85 914 108 828 z "},"Ü":{"ha":893,"x_min":85,"x_max":815,"o":"m 85 914 q 167 925 121 925 q 244 909 219 925 q 268 854 268 893 q 258 599 268 797 q 247 292 247 401 q 296 152 247 197 q 410 107 344 107 q 535 138 469 107 q 642 211 601 168 q 642 255 642 221 q 642 376 642 289 q 643 599 643 463 q 633 919 643 793 q 710 925 676 925 q 800 872 800 925 q 797 821 800 869 q 792 669 794 772 q 789 429 789 565 q 793 141 789 214 q 815 7 797 68 q 729 -4 785 -4 q 660 13 679 -4 q 640 78 640 31 l 640 104 q 510 19 586 51 q 371 -14 435 -14 q 170 48 244 -14 q 96 267 96 110 q 102 489 96 349 q 108 696 108 629 q 85 914 108 828 m 597 989 q 526 1017 556 989 q 497 1088 497 1044 q 528 1158 497 1129 q 600 1186 558 1186 q 669 1158 640 1186 q 699 1088 699 1129 q 668 1017 699 1046 q 597 989 638 989 m 333 989 q 263 1017 292 989 q 233 1088 233 1044 q 264 1158 233 1129 q 336 1186 294 1186 q 406 1158 376 1186 q 435 1088 435 1129 q 404 1017 435 1046 q 333 989 374 989 z "},"Ý":{"ha":704,"x_min":-12,"x_max":699,"o":"m 554 1138 q 449 1074 529 1118 q 332 994 369 1029 q 290 1063 290 1032 q 304 1094 290 1081 q 342 1121 318 1107 q 414 1177 365 1135 q 517 1279 463 1219 q 592 1197 592 1240 q 554 1138 592 1164 m 699 856 q 609 671 699 807 q 431 426 519 535 l 431 282 q 457 10 431 97 q 371 -4 418 -4 q 301 14 319 -4 q 282 75 282 32 q 283 185 282 97 q 285 321 285 272 l 285 421 q -12 853 89 785 q 44 904 10 882 q 111 926 79 926 q 193 879 160 926 q 385 536 296 728 q 504 760 449 635 q 567 933 560 885 q 699 856 699 928 z "},"Þ":{"ha":718,"x_min":78,"x_max":676,"o":"m 88 321 l 88 599 q 78 918 88 792 q 151 925 119 925 q 244 872 244 925 l 239 781 q 286 782 254 782 q 676 475 676 782 q 592 249 676 326 q 394 171 508 171 q 233 215 301 171 q 260 10 236 85 q 174 -4 221 -4 q 103 14 122 -4 q 85 75 85 32 q 86 185 85 97 q 88 321 88 272 m 350 281 q 474 331 429 281 q 518 468 518 382 q 468 631 518 586 q 313 675 418 675 q 235 669 288 675 q 233 304 233 635 q 350 281 279 281 z "},"ß":{"ha":746,"x_min":76,"x_max":693,"o":"m 239 678 l 239 276 q 240 192 239 253 q 240 78 240 131 q 221 15 240 33 q 151 -4 201 -4 q 76 15 118 -4 q 103 285 103 101 l 103 640 q 180 861 103 786 q 363 936 257 936 q 512 893 450 936 q 574 775 574 850 q 549 663 574 708 q 494 600 524 618 q 440 559 465 582 q 415 511 415 536 q 459 443 415 478 q 554 381 503 408 q 649 301 606 353 q 693 183 693 249 q 631 46 693 106 q 479 -14 568 -14 q 352 21 407 -14 q 297 106 297 56 q 324 150 297 133 q 401 182 350 167 q 436 110 411 135 q 489 85 461 85 q 533 109 514 85 q 551 167 551 133 q 524 242 551 207 q 458 302 497 276 q 381 354 419 328 q 315 419 342 381 q 288 506 288 458 q 310 569 288 540 q 360 617 333 599 q 409 669 386 635 q 432 749 432 704 q 410 815 432 792 q 354 838 389 838 q 273 798 307 838 q 239 678 239 758 z "},"à":{"ha":664,"x_min":53,"x_max":600,"o":"m 178 1003 q 294 897 233 943 q 383 831 356 851 q 410 788 410 810 q 365 726 410 756 q 251 797 322 758 q 142 862 179 835 q 106 918 106 889 q 178 1003 106 967 m 421 199 q 424 297 421 263 q 363 289 382 292 q 313 281 344 286 q 266 268 281 275 q 235 251 251 261 q 211 227 218 242 q 204 193 204 213 q 232 111 204 138 q 303 85 260 85 q 424 138 374 85 q 421 199 421 156 m 426 382 q 424 454 426 429 q 413 511 422 479 q 383 558 404 543 q 325 572 361 572 q 238 542 279 572 q 179 460 197 513 q 56 533 56 461 q 140 633 56 593 q 331 674 224 674 q 517 621 458 674 q 576 432 576 568 q 575 367 576 428 q 574 247 574 306 q 600 10 574 89 q 521 -6 560 -6 q 428 58 443 -6 q 240 -14 344 -14 q 106 36 160 -14 q 53 183 53 86 q 86 299 53 261 q 175 354 119 336 q 426 382 258 381 z "},"á":{"ha":664,"x_min":53,"x_max":600,"o":"m 510 869 q 405 806 485 850 q 288 726 325 761 q 246 794 246 764 q 260 826 246 813 q 297 853 274 839 q 369 909 321 867 q 472 1011 418 951 q 547 929 547 972 q 510 869 547 896 m 421 199 q 424 297 421 263 q 363 289 382 292 q 313 281 344 286 q 266 268 281 275 q 235 251 251 261 q 211 227 218 242 q 204 193 204 213 q 232 111 204 138 q 303 85 260 85 q 424 138 374 85 q 421 199 421 156 m 426 382 q 424 454 426 429 q 413 511 422 479 q 383 558 404 543 q 325 572 361 572 q 238 542 279 572 q 179 460 197 513 q 56 533 56 461 q 140 633 56 593 q 331 674 224 674 q 517 621 458 674 q 576 432 576 568 q 575 367 576 428 q 574 247 574 306 q 600 10 574 89 q 521 -6 560 -6 q 428 58 443 -6 q 240 -14 344 -14 q 106 36 160 -14 q 53 183 53 86 q 86 299 53 261 q 175 354 119 336 q 426 382 258 381 z "},"â":{"ha":664,"x_min":53,"x_max":600,"o":"m 517 783 q 465 721 517 754 q 407 780 442 750 q 349 825 372 810 l 325 842 q 167 738 204 738 q 110 774 136 738 q 326 975 213 894 q 517 783 517 843 m 421 199 q 424 297 421 263 q 363 289 382 292 q 313 281 344 286 q 266 268 281 275 q 235 251 251 261 q 211 227 218 242 q 204 193 204 213 q 232 111 204 138 q 303 85 260 85 q 424 138 374 85 q 421 199 421 156 m 426 382 q 424 454 426 429 q 413 511 422 479 q 383 558 404 543 q 325 572 361 572 q 238 542 279 572 q 179 460 197 513 q 56 533 56 461 q 140 633 56 593 q 331 674 224 674 q 517 621 458 674 q 576 432 576 568 q 575 367 576 428 q 574 247 574 306 q 600 10 574 89 q 521 -6 560 -6 q 428 58 443 -6 q 240 -14 344 -14 q 106 36 160 -14 q 53 183 53 86 q 86 299 53 261 q 175 354 119 336 q 426 382 258 381 z "},"ã":{"ha":664,"x_min":53,"x_max":600,"o":"m 421 199 q 424 297 421 263 q 363 289 382 292 q 313 281 344 286 q 266 268 281 275 q 235 251 251 261 q 211 227 218 242 q 204 193 204 213 q 232 111 204 138 q 303 85 260 85 q 424 138 374 85 q 421 199 421 156 m 426 382 q 424 454 426 429 q 413 511 422 479 q 383 558 404 543 q 325 572 361 572 q 238 542 279 572 q 179 460 197 513 q 56 533 56 461 q 140 633 56 593 q 331 674 224 674 q 517 621 458 674 q 576 432 576 568 q 575 367 576 428 q 574 247 574 306 q 600 10 574 89 q 521 -6 560 -6 q 428 58 443 -6 q 240 -14 344 -14 q 106 36 160 -14 q 53 183 53 86 q 86 299 53 261 q 175 354 119 336 q 426 382 258 381 m 539 857 q 492 776 539 815 q 390 738 446 738 q 297 768 350 738 q 235 799 244 799 q 164 735 215 799 q 117 788 117 756 q 163 864 117 828 q 267 900 210 900 q 352 869 300 900 q 419 839 404 839 q 490 901 446 839 q 539 857 539 888 z "},"ä":{"ha":664,"x_min":53,"x_max":600,"o":"m 421 199 q 424 297 421 263 q 363 289 382 292 q 313 281 344 286 q 266 268 281 275 q 235 251 251 261 q 211 227 218 242 q 204 193 204 213 q 232 111 204 138 q 303 85 260 85 q 424 138 374 85 q 421 199 421 156 m 426 382 q 424 454 426 429 q 413 511 422 479 q 383 558 404 543 q 325 572 361 572 q 238 542 279 572 q 179 460 197 513 q 56 533 56 461 q 140 633 56 593 q 331 674 224 674 q 517 621 458 674 q 576 432 576 568 q 575 367 576 428 q 574 247 574 306 q 600 10 574 89 q 521 -6 560 -6 q 428 58 443 -6 q 240 -14 344 -14 q 106 36 160 -14 q 53 183 53 86 q 86 299 53 261 q 175 354 119 336 q 426 382 258 381 m 465 722 q 394 750 424 722 q 365 821 365 778 q 396 891 365 863 q 468 919 426 919 q 538 891 508 919 q 567 821 567 863 q 536 751 567 779 q 465 722 506 722 m 201 722 q 131 750 160 722 q 101 821 101 778 q 132 891 101 863 q 204 919 163 919 q 274 891 244 919 q 303 821 303 863 q 272 751 303 779 q 201 722 242 722 z "},"å":{"ha":664,"x_min":53,"x_max":600,"o":"m 364 847 q 351 899 364 879 q 314 919 338 919 q 261 860 261 919 q 276 809 261 829 q 314 789 290 789 q 364 847 364 789 m 408 758 q 390 740 408 758 q 314 722 372 722 q 219 758 256 722 q 182 854 182 794 q 219 950 182 914 q 314 986 256 986 q 408 950 372 986 q 443 854 443 914 q 408 758 443 794 m 421 199 q 424 297 421 263 q 363 289 382 292 q 313 281 344 286 q 266 268 281 275 q 235 251 251 261 q 211 227 218 242 q 204 193 204 213 q 232 111 204 138 q 303 85 260 85 q 424 138 374 85 q 421 199 421 156 m 426 382 q 424 454 426 429 q 413 511 422 479 q 383 558 404 543 q 325 572 361 572 q 238 542 279 572 q 179 460 197 513 q 56 533 56 461 q 140 633 56 593 q 331 674 224 674 q 517 621 458 674 q 576 432 576 568 q 575 367 576 428 q 574 247 574 306 q 600 10 574 89 q 521 -6 560 -6 q 428 58 443 -6 q 240 -14 344 -14 q 106 36 160 -14 q 53 183 53 86 q 86 299 53 261 q 175 354 119 336 q 426 382 258 381 z "},"æ":{"ha":1046,"x_min":53,"x_max":992,"o":"m 303 85 q 456 167 382 85 q 424 299 432 215 q 338 286 368 292 q 272 269 307 281 q 220 238 236 257 q 204 193 204 219 q 232 111 204 138 q 303 85 260 85 m 740 572 q 629 522 675 572 q 575 364 583 472 q 706 368 664 364 q 840 474 840 385 q 812 543 840 514 q 740 572 783 572 m 681 274 q 579 276 643 274 q 642 132 593 178 q 764 86 692 86 q 842 106 801 86 q 901 161 882 125 q 969 83 969 125 q 904 11 969 36 q 758 -14 839 -14 q 610 17 682 -14 q 492 108 539 47 q 240 -14 372 -14 q 106 36 160 -14 q 53 183 53 86 q 86 299 53 261 q 175 354 119 336 q 426 382 258 381 q 424 454 426 429 q 413 511 422 479 q 383 558 404 543 q 325 572 361 572 q 238 542 279 572 q 179 460 197 513 q 56 533 56 461 q 140 633 56 593 q 331 674 224 674 q 458 653 408 674 q 538 583 508 633 q 753 674 622 674 q 926 615 860 674 q 992 476 992 557 q 967 369 992 411 q 896 307 943 326 q 800 281 849 288 q 681 274 751 274 z "},"ç":{"ha":644,"x_min":53,"x_max":599,"o":"m 393 86 q 471 106 431 86 q 531 161 511 125 q 599 83 599 125 q 533 11 599 36 q 388 -14 468 -14 q 349 -11 374 -14 q 339 -54 339 -40 q 371 -81 339 -62 q 453 -193 453 -124 q 400 -294 453 -250 q 268 -339 347 -339 q 197 -294 197 -339 q 232 -236 197 -268 q 286 -256 254 -256 q 338 -212 338 -256 q 290 -150 338 -183 q 242 -86 242 -117 q 268 6 242 -56 q 113 117 174 38 q 53 324 53 197 q 153 585 53 496 q 381 674 253 674 q 528 637 458 674 q 599 535 599 600 q 569 488 599 506 q 490 464 540 469 q 440 542 479 514 q 361 569 401 569 q 250 506 294 569 q 206 339 206 442 q 258 147 206 207 q 393 86 310 86 z "},"è":{"ha":674,"x_min":53,"x_max":621,"o":"m 229 1003 q 346 897 285 943 q 434 831 407 851 q 461 788 461 810 q 417 726 461 756 q 302 797 374 758 q 194 862 231 835 q 157 918 157 889 q 229 1003 157 967 m 310 274 q 208 276 272 274 q 272 132 222 178 q 393 86 321 86 q 471 106 431 86 q 531 161 511 125 q 599 83 599 125 q 533 11 599 36 q 388 -14 468 -14 q 155 72 257 -14 q 53 321 53 158 q 151 583 53 492 q 382 674 249 674 q 555 615 489 674 q 621 476 621 557 q 597 369 621 411 q 525 307 572 326 q 429 281 478 288 q 310 274 381 274 m 369 572 q 258 522 304 572 q 204 364 213 472 q 335 368 293 364 q 469 474 469 385 q 441 543 469 514 q 369 572 413 572 z "},"é":{"ha":674,"x_min":53,"x_max":621,"o":"m 533 869 q 428 806 508 850 q 311 726 349 761 q 269 794 269 764 q 283 826 269 813 q 321 853 297 839 q 393 909 344 867 q 496 1011 442 951 q 571 929 571 972 q 533 869 571 896 m 310 274 q 208 276 272 274 q 272 132 222 178 q 393 86 321 86 q 471 106 431 86 q 531 161 511 125 q 599 83 599 125 q 533 11 599 36 q 388 -14 468 -14 q 155 72 257 -14 q 53 321 53 158 q 151 583 53 492 q 382 674 249 674 q 555 615 489 674 q 621 476 621 557 q 597 369 621 411 q 525 307 572 326 q 429 281 478 288 q 310 274 381 274 m 369 572 q 258 522 304 572 q 204 364 213 472 q 335 368 293 364 q 469 474 469 385 q 441 543 469 514 q 369 572 413 572 z "},"ê":{"ha":674,"x_min":53,"x_max":621,"o":"m 567 783 q 515 721 567 754 q 457 780 492 750 q 399 825 422 810 l 375 842 q 217 738 254 738 q 160 774 186 738 q 376 975 263 894 q 567 783 567 843 m 310 274 q 208 276 272 274 q 272 132 222 178 q 393 86 321 86 q 471 106 431 86 q 531 161 511 125 q 599 83 599 125 q 533 11 599 36 q 388 -14 468 -14 q 155 72 257 -14 q 53 321 53 158 q 151 583 53 492 q 382 674 249 674 q 555 615 489 674 q 621 476 621 557 q 597 369 621 411 q 525 307 572 326 q 429 281 478 288 q 310 274 381 274 m 369 572 q 258 522 304 572 q 204 364 213 472 q 335 368 293 364 q 469 474 469 385 q 441 543 469 514 q 369 572 413 572 z "},"ë":{"ha":674,"x_min":53,"x_max":621,"o":"m 310 274 q 208 276 272 274 q 272 132 222 178 q 393 86 321 86 q 471 106 431 86 q 531 161 511 125 q 599 83 599 125 q 533 11 599 36 q 388 -14 468 -14 q 155 72 257 -14 q 53 321 53 158 q 151 583 53 492 q 382 674 249 674 q 555 615 489 674 q 621 476 621 557 q 597 369 621 411 q 525 307 572 326 q 429 281 478 288 q 310 274 381 274 m 369 572 q 258 522 304 572 q 204 364 213 472 q 335 368 293 364 q 469 474 469 385 q 441 543 469 514 q 369 572 413 572 m 517 722 q 446 750 475 722 q 417 821 417 778 q 447 891 417 863 q 519 919 478 919 q 589 891 560 919 q 618 821 618 863 q 588 751 618 779 q 517 722 557 722 m 253 722 q 182 750 211 722 q 153 821 153 778 q 183 891 153 863 q 256 919 214 919 q 325 891 296 919 q 354 821 354 863 q 324 751 354 779 q 253 722 293 722 z "},"ì":{"ha":346,"x_min":-8,"x_max":296,"o":"m 64 1003 q 181 897 119 943 q 269 831 242 851 q 296 788 296 810 q 251 726 296 756 q 137 797 208 758 q 28 862 65 835 q -8 918 -8 889 q 64 1003 -8 967 m 161 664 q 261 590 261 664 q 257 534 261 582 q 249 415 253 486 q 246 281 246 344 q 282 10 246 94 q 203 -6 247 -6 q 120 19 142 -6 q 99 104 99 44 q 100 212 99 126 q 101 343 101 297 q 89 658 101 544 q 161 664 122 664 z "},"í":{"ha":346,"x_min":63,"x_max":364,"o":"m 326 869 q 222 806 301 850 q 104 726 142 761 q 63 794 63 764 q 76 826 63 813 q 114 853 90 839 q 186 909 138 867 q 289 1011 235 951 q 364 929 364 972 q 326 869 364 896 m 161 664 q 261 590 261 664 q 257 534 261 582 q 249 415 253 486 q 246 281 246 344 q 282 10 246 94 q 203 -6 247 -6 q 120 19 142 -6 q 99 104 99 44 q 100 212 99 126 q 101 343 101 297 q 89 658 101 544 q 161 664 122 664 z "},"î":{"ha":346,"x_min":-35,"x_max":372,"o":"m 372 783 q 321 721 372 754 q 263 780 297 750 q 204 825 228 810 l 181 842 q 22 738 60 738 q -35 774 -7 738 q 182 975 68 894 q 372 783 372 843 m 161 664 q 261 590 261 664 q 257 534 261 582 q 249 415 253 486 q 246 281 246 344 q 282 10 246 94 q 203 -6 247 -6 q 120 19 142 -6 q 99 104 99 44 q 100 212 99 126 q 101 343 101 297 q 89 658 101 544 q 161 664 122 664 z "},"ï":{"ha":346,"x_min":-54,"x_max":411,"o":"m 161 664 q 261 590 261 664 q 257 534 261 582 q 249 415 253 486 q 246 281 246 344 q 282 10 246 94 q 203 -6 247 -6 q 120 19 142 -6 q 99 104 99 44 q 100 212 99 126 q 101 343 101 297 q 89 658 101 544 q 161 664 122 664 m 310 722 q 239 750 268 722 q 210 821 210 778 q 240 891 210 863 q 313 919 271 919 q 382 891 353 919 q 411 821 411 863 q 381 751 411 779 q 310 722 350 722 m 46 722 q -25 750 4 722 q -54 821 -54 778 q -24 891 -54 863 q 49 919 7 919 q 118 891 89 919 q 147 821 147 863 q 117 751 147 779 q 46 722 86 722 z "},"ð":{"ha":743,"x_min":53,"x_max":685,"o":"m 549 304 q 500 498 549 419 q 368 576 451 576 q 235 512 282 576 q 188 340 188 447 q 235 147 188 224 q 368 69 283 69 q 501 134 454 69 q 549 304 549 199 m 217 793 q 299 847 251 815 q 129 894 219 882 q 126 921 126 911 q 163 969 126 969 q 264 952 197 969 q 385 908 331 935 q 529 1017 485 979 q 569 953 569 990 q 546 913 569 928 q 501 882 529 900 q 468 860 474 864 q 636 641 588 768 q 685 328 685 514 q 598 79 685 172 q 368 -14 511 -14 q 140 79 226 -14 q 53 329 53 172 q 136 580 53 486 q 354 674 219 674 q 525 606 463 674 q 382 800 482 729 q 299 740 346 775 q 242 697 253 706 q 194 756 194 719 q 217 793 194 775 z "},"ñ":{"ha":749,"x_min":71,"x_max":678,"o":"m 233 596 q 456 674 332 674 q 593 624 540 674 q 646 463 646 574 q 644 354 646 447 q 642 218 642 261 q 678 13 642 104 q 600 -6 635 -6 q 519 18 543 -6 q 496 107 496 42 q 499 281 496 179 q 501 422 501 383 q 471 536 501 499 q 392 574 440 574 q 239 501 318 574 q 242 231 242 315 q 250 3 242 97 q 181 -3 213 -3 q 90 53 90 -3 q 94 183 90 93 q 97 346 97 274 q 71 649 97 576 q 143 664 104 664 q 206 651 183 664 q 233 596 228 639 m 585 857 q 538 776 585 815 q 436 738 492 738 q 343 768 396 738 q 281 799 290 799 q 210 735 261 799 q 163 788 163 756 q 209 864 163 828 q 313 900 256 900 q 398 869 346 900 q 465 839 450 839 q 536 901 492 839 q 585 857 585 888 z "},"ò":{"ha":750,"x_min":53,"x_max":697,"o":"m 226 1003 q 343 897 282 943 q 431 831 404 851 q 458 788 458 810 q 414 726 458 756 q 299 797 371 758 q 191 862 228 835 q 154 918 154 889 q 226 1003 154 967 m 546 313 q 499 498 546 424 q 374 572 453 572 q 249 511 293 572 q 204 349 204 450 q 249 163 204 236 q 374 89 294 89 q 501 150 456 89 q 546 313 546 211 m 374 -14 q 141 80 229 -14 q 53 331 53 174 q 141 581 53 488 q 374 674 229 674 q 608 581 519 674 q 697 331 697 488 q 608 80 697 174 q 374 -14 519 -14 z "},"ó":{"ha":750,"x_min":53,"x_max":697,"o":"m 558 869 q 453 806 533 850 q 336 726 374 761 q 294 794 294 764 q 308 826 294 813 q 346 853 322 839 q 418 909 369 867 q 521 1011 467 951 q 596 929 596 972 q 558 869 596 896 m 546 313 q 499 498 546 424 q 374 572 453 572 q 249 511 293 572 q 204 349 204 450 q 249 163 204 236 q 374 89 294 89 q 501 150 456 89 q 546 313 546 211 m 374 -14 q 141 80 229 -14 q 53 331 53 174 q 141 581 53 488 q 374 674 229 674 q 608 581 519 674 q 697 331 697 488 q 608 80 697 174 q 374 -14 519 -14 z "},"ô":{"ha":750,"x_min":53,"x_max":697,"o":"m 576 783 q 525 721 576 754 q 467 780 501 750 q 408 825 432 810 l 385 842 q 226 738 264 738 q 169 774 197 738 q 386 975 272 894 q 576 783 576 843 m 546 313 q 499 498 546 424 q 374 572 453 572 q 249 511 293 572 q 204 349 204 450 q 249 163 204 236 q 374 89 294 89 q 501 150 456 89 q 546 313 546 211 m 374 -14 q 141 80 229 -14 q 53 331 53 174 q 141 581 53 488 q 374 674 229 674 q 608 581 519 674 q 697 331 697 488 q 608 80 697 174 q 374 -14 519 -14 z "},"õ":{"ha":750,"x_min":53,"x_max":697,"o":"m 546 313 q 499 498 546 424 q 374 572 453 572 q 249 511 293 572 q 204 349 204 450 q 249 163 204 236 q 374 89 294 89 q 501 150 456 89 q 546 313 546 211 m 374 -14 q 141 80 229 -14 q 53 331 53 174 q 141 581 53 488 q 374 674 229 674 q 608 581 519 674 q 697 331 697 488 q 608 80 697 174 q 374 -14 519 -14 m 585 857 q 538 776 585 815 q 436 738 492 738 q 343 768 396 738 q 281 799 290 799 q 210 735 261 799 q 163 788 163 756 q 209 864 163 828 q 313 900 256 900 q 398 869 346 900 q 465 839 450 839 q 536 901 492 839 q 585 857 585 888 z "},"ö":{"ha":750,"x_min":53,"x_max":697,"o":"m 546 313 q 499 498 546 424 q 374 572 453 572 q 249 511 293 572 q 204 349 204 450 q 249 163 204 236 q 374 89 294 89 q 501 150 456 89 q 546 313 546 211 m 374 -14 q 141 80 229 -14 q 53 331 53 174 q 141 581 53 488 q 374 674 229 674 q 608 581 519 674 q 697 331 697 488 q 608 80 697 174 q 374 -14 519 -14 m 514 722 q 443 750 472 722 q 414 821 414 778 q 444 891 414 863 q 517 919 475 919 q 586 891 557 919 q 615 821 615 863 q 585 751 615 779 q 514 722 554 722 m 250 722 q 179 750 208 722 q 150 821 150 778 q 181 891 150 863 q 253 919 211 919 q 322 891 293 919 q 351 821 351 863 q 321 751 351 779 q 250 722 290 722 z "},"÷":{"ha":743,"x_min":47,"x_max":633,"o":"m 633 361 q 613 313 633 333 q 561 293 593 293 q 461 299 539 293 q 350 304 383 304 q 54 290 204 304 q 47 344 47 325 q 65 392 47 371 q 119 413 82 413 q 203 408 124 413 q 347 403 282 403 q 625 415 524 403 q 633 361 633 392 m 354 499 q 293 523 318 499 q 268 586 268 547 q 293 649 268 624 q 354 675 318 675 q 413 649 389 675 q 438 586 438 624 q 413 523 438 547 q 354 499 389 499 m 354 31 q 293 56 318 31 q 268 119 268 81 q 294 182 268 156 q 354 208 319 208 q 413 182 389 208 q 438 119 438 156 q 413 56 438 81 q 354 31 389 31 z "},"ø":{"ha":750,"x_min":53,"x_max":697,"o":"m 247 8 l 221 -42 q 182 -121 190 -97 q 118 -78 118 -114 q 153 -1 118 -64 l 179 46 q 53 331 53 142 q 141 581 53 488 q 374 674 229 674 q 510 647 446 674 l 540 703 q 579 782 554 728 q 643 739 643 775 q 613 669 643 724 l 578 607 q 697 331 697 514 q 608 80 697 174 q 374 -14 519 -14 q 247 8 307 -14 m 204 349 q 246 168 204 236 l 454 546 q 374 572 417 572 q 249 511 293 572 q 204 349 204 450 m 501 150 q 523 181 501 150 q 546 313 546 211 q 508 482 546 414 l 303 108 q 374 89 335 89 q 501 150 456 89 z "},"ù":{"ha":735,"x_min":71,"x_max":664,"o":"m 218 1003 q 335 897 274 943 q 423 831 396 851 q 450 788 450 810 q 406 726 450 756 q 291 797 363 758 q 183 862 219 835 q 146 918 146 889 q 218 1003 146 967 m 506 65 q 294 -14 414 -14 q 90 183 90 -14 q 92 290 90 193 q 94 429 94 386 q 71 653 94 572 q 147 665 108 665 q 221 649 199 665 q 243 593 243 632 q 239 396 243 521 q 235 235 235 271 q 265 126 235 164 q 342 89 294 89 q 496 160 422 89 q 494 336 494 217 q 485 660 494 544 q 554 665 524 665 q 643 611 643 665 q 640 472 643 586 q 638 283 638 358 q 664 11 638 110 q 594 -4 635 -4 q 553 -1 568 -4 q 524 19 538 3 q 506 65 510 35 z "},"ú":{"ha":735,"x_min":71,"x_max":664,"o":"m 550 869 q 445 806 525 850 q 328 726 365 761 q 286 794 286 764 q 300 826 286 813 q 338 853 314 839 q 410 909 361 867 q 513 1011 458 951 q 588 929 588 972 q 550 869 588 896 m 506 65 q 294 -14 414 -14 q 90 183 90 -14 q 92 290 90 193 q 94 429 94 386 q 71 653 94 572 q 147 665 108 665 q 221 649 199 665 q 243 593 243 632 q 239 396 243 521 q 235 235 235 271 q 265 126 235 164 q 342 89 294 89 q 496 160 422 89 q 494 336 494 217 q 485 660 494 544 q 554 665 524 665 q 643 611 643 665 q 640 472 643 586 q 638 283 638 358 q 664 11 638 110 q 594 -4 635 -4 q 553 -1 568 -4 q 524 19 538 3 q 506 65 510 35 z "},"û":{"ha":735,"x_min":71,"x_max":664,"o":"m 558 783 q 507 721 558 754 q 449 780 483 750 q 390 825 414 810 l 367 842 q 208 738 246 738 q 151 774 178 738 q 368 975 254 894 q 558 783 558 843 m 506 65 q 294 -14 414 -14 q 90 183 90 -14 q 92 290 90 193 q 94 429 94 386 q 71 653 94 572 q 147 665 108 665 q 221 649 199 665 q 243 593 243 632 q 239 396 243 521 q 235 235 235 271 q 265 126 235 164 q 342 89 294 89 q 496 160 422 89 q 494 336 494 217 q 485 660 494 544 q 554 665 524 665 q 643 611 643 665 q 640 472 643 586 q 638 283 638 358 q 664 11 638 110 q 594 -4 635 -4 q 553 -1 568 -4 q 524 19 538 3 q 506 65 510 35 z "},"ü":{"ha":735,"x_min":71,"x_max":664,"o":"m 506 65 q 294 -14 414 -14 q 90 183 90 -14 q 92 290 90 193 q 94 429 94 386 q 71 653 94 572 q 147 665 108 665 q 221 649 199 665 q 243 593 243 632 q 239 396 243 521 q 235 235 235 271 q 265 126 235 164 q 342 89 294 89 q 496 160 422 89 q 494 336 494 217 q 485 660 494 544 q 554 665 524 665 q 643 611 643 665 q 640 472 643 586 q 638 283 638 358 q 664 11 638 110 q 594 -4 635 -4 q 553 -1 568 -4 q 524 19 538 3 q 506 65 510 35 m 506 722 q 435 750 464 722 q 406 821 406 778 q 436 891 406 863 q 508 919 467 919 q 578 891 549 919 q 607 821 607 863 q 576 751 607 779 q 506 722 546 722 m 242 722 q 171 750 200 722 q 142 821 142 778 q 172 891 142 863 q 244 919 203 919 q 314 891 285 919 q 343 821 343 863 q 313 751 343 779 q 242 722 282 722 z "},"ý":{"ha":647,"x_min":0,"x_max":611,"o":"m 518 869 q 413 806 493 850 q 296 726 333 761 q 254 794 254 764 q 268 826 254 813 q 306 853 282 839 q 378 909 329 867 q 481 1011 426 951 q 556 929 556 972 q 518 869 556 896 m 143 -347 q 90 -326 115 -347 q 47 -274 64 -306 q 149 -175 86 -247 q 268 -8 211 -103 q 135 364 217 163 q 0 619 54 565 q 110 667 68 667 q 185 619 163 667 q 269 422 215 556 q 360 169 324 288 q 438 415 407 286 q 468 624 468 544 q 465 665 468 649 q 536 674 497 674 q 611 615 611 674 q 561 394 611 551 q 443 90 511 238 q 214 -310 318 -181 q 143 -347 183 -347 z "},"þ":{"ha":722,"x_min":71,"x_max":669,"o":"m 376 572 q 226 513 301 572 q 228 126 226 232 q 364 89 282 89 q 453 129 417 89 q 503 226 489 169 q 518 349 518 282 q 478 518 518 464 q 376 572 439 572 m 143 1032 q 242 956 242 1032 q 238 901 242 946 q 231 775 235 857 q 226 596 228 693 q 428 674 326 674 q 602 599 535 674 q 669 368 669 524 q 592 97 669 208 q 368 -14 514 -14 q 225 25 294 -14 q 253 -336 225 -256 q 174 -350 211 -350 q 99 -331 118 -350 q 79 -268 79 -312 q 81 78 79 -37 q 83 396 83 339 l 83 658 q 71 1025 83 914 q 143 1032 110 1032 z "},"ÿ":{"ha":647,"x_min":0,"x_max":611,"o":"m 143 -347 q 90 -326 115 -347 q 47 -274 64 -306 q 149 -175 86 -247 q 268 -8 211 -103 q 135 364 217 163 q 0 619 54 565 q 110 667 68 667 q 185 619 163 667 q 269 422 215 556 q 360 169 324 288 q 438 415 407 286 q 468 624 468 544 q 465 665 468 649 q 536 674 497 674 q 611 615 611 674 q 561 394 611 551 q 443 90 511 238 q 214 -310 318 -181 q 143 -347 183 -347 m 464 722 q 393 750 422 722 q 364 821 364 778 q 394 891 364 863 q 467 919 425 919 q 536 891 507 919 q 565 821 565 863 q 535 751 565 779 q 464 722 504 722 m 200 722 q 129 750 158 722 q 100 821 100 778 q 131 891 100 863 q 203 919 161 919 q 272 891 243 919 q 301 821 301 863 q 271 751 301 779 q 200 722 240 722 z "},"ı":{"ha":346,"x_min":89,"x_max":282,"o":"m 161 664 q 261 590 261 664 q 257 534 261 582 q 249 415 253 486 q 246 281 246 344 q 282 10 246 94 q 203 -6 247 -6 q 120 19 142 -6 q 99 104 99 44 q 100 212 99 126 q 101 343 101 297 q 89 658 101 544 q 161 664 122 664 z "},"Ł":{"ha":626,"x_min":-53,"x_max":626,"o":"m 7 258 q -53 322 -53 283 q -32 363 -53 346 l 104 467 l 104 599 q 94 921 104 794 q 171 925 126 925 q 261 872 261 925 q 258 820 261 865 q 253 708 256 775 q 250 581 250 642 q 394 703 324 639 q 456 640 456 681 q 435 599 456 618 l 250 457 q 260 108 250 167 q 349 106 315 106 q 617 138 557 106 q 626 63 626 103 q 614 18 626 31 q 389 -3 589 -3 q 169 0 211 -3 q 116 19 131 1 q 101 79 101 38 q 103 186 101 99 q 104 342 104 274 q 73 317 90 331 q 36 285 56 303 q 7 258 17 267 z "},"ł":{"ha":340,"x_min":-82,"x_max":426,"o":"m 161 1032 q 260 956 260 1032 q 257 905 260 946 q 250 787 254 864 q 244 621 246 710 q 365 724 322 685 q 426 661 426 701 q 406 619 426 639 l 244 496 q 250 151 244 228 q 282 13 256 75 q 200 -6 242 -6 q 119 20 140 -6 q 99 107 99 46 q 101 385 99 185 q -22 279 0 300 q -82 343 -82 304 q -61 383 -82 367 l 101 507 q 89 1025 101 913 q 161 1032 128 1032 z "},"Œ":{"ha":1235,"x_min":58,"x_max":1199,"o":"m 497 96 q 646 136 582 96 q 647 229 646 164 q 649 328 649 294 l 649 597 q 643 781 649 703 q 499 825 583 825 q 293 734 369 825 q 217 500 217 643 q 242 308 217 396 q 334 158 268 221 q 497 96 400 96 m 789 810 q 794 550 794 756 l 899 550 q 1057 556 1010 550 q 1063 511 1063 543 q 1049 458 1063 472 q 1004 442 1035 443 q 911 440 969 440 l 794 440 q 804 108 794 164 q 900 106 863 106 q 1188 136 1122 106 q 1199 63 1199 104 q 1186 18 1199 31 q 949 -3 1160 -3 q 718 0 760 -3 q 658 22 672 1 q 496 -14 574 -14 q 177 115 296 -14 q 58 460 58 244 q 177 806 58 678 q 496 935 296 935 q 629 913 563 935 q 947 925 785 925 q 1185 904 1158 925 q 1197 860 1197 892 q 1186 785 1197 818 q 936 814 1108 814 q 789 810 867 814 z "},"œ":{"ha":1165,"x_min":53,"x_max":1113,"o":"m 861 572 q 750 522 796 572 q 696 364 704 472 q 826 368 785 364 q 961 474 961 385 q 933 543 961 514 q 861 572 904 572 m 374 572 q 249 511 293 572 q 204 349 204 450 q 249 163 204 236 q 374 89 294 89 q 499 149 453 89 q 544 321 544 210 q 497 503 544 433 q 374 572 450 572 m 700 276 q 763 132 714 178 q 885 86 813 86 q 963 106 922 86 q 1022 161 1003 125 q 1090 83 1090 125 q 1025 11 1090 36 q 879 -14 960 -14 q 622 110 714 -14 q 374 -14 538 -14 q 141 80 229 -14 q 53 331 53 174 q 141 581 53 488 q 374 674 229 674 q 624 549 540 674 q 874 674 714 674 q 1047 615 981 674 q 1113 476 1113 557 q 1088 369 1113 411 q 1017 307 1064 326 q 921 281 969 288 q 801 274 872 274 q 700 276 764 274 z "},"Š":{"ha":735,"x_min":53,"x_max":682,"o":"m 189 1181 q 240 1243 189 1210 q 299 1184 264 1214 q 357 1139 333 1154 l 381 1122 q 539 1226 501 1226 q 596 1190 569 1226 q 379 989 493 1069 q 189 1181 189 1121 m 567 706 q 489 793 546 758 q 371 828 432 828 q 252 793 300 828 q 204 690 204 758 q 231 620 204 649 q 299 576 257 592 q 392 546 342 560 q 494 514 443 532 q 587 471 544 496 q 656 399 629 446 q 682 286 682 351 q 654 144 682 204 q 577 50 626 83 q 471 1 528 17 q 347 -14 414 -14 q 142 28 232 -14 q 53 126 53 69 q 133 221 53 183 q 229 132 161 168 q 367 96 297 96 q 501 133 447 96 q 554 244 554 169 q 519 319 554 289 q 431 365 483 350 q 315 403 378 381 q 200 453 253 426 q 112 538 147 481 q 76 675 76 594 q 169 867 76 799 q 400 935 263 935 q 517 920 458 935 q 618 873 575 906 q 661 797 661 840 q 567 706 661 725 z "},"š":{"ha":607,"x_min":47,"x_max":558,"o":"m 443 474 q 289 564 415 564 q 226 544 253 564 q 200 489 200 524 q 237 424 200 447 q 326 389 274 400 q 432 363 379 378 q 522 306 485 347 q 558 194 558 264 q 478 40 558 93 q 290 -14 399 -14 q 121 18 194 -14 q 47 97 47 50 q 133 193 47 157 q 314 96 175 96 q 419 167 419 96 q 383 230 419 208 q 293 262 346 251 q 188 289 240 272 q 98 350 135 306 q 61 469 61 394 q 141 622 61 569 q 329 674 221 674 q 416 665 371 674 q 503 627 461 656 q 546 556 546 599 q 518 506 546 528 q 443 474 490 485 m 114 913 q 165 975 114 942 q 224 916 189 946 q 282 869 258 886 l 306 854 q 464 958 426 958 q 521 922 494 958 q 304 721 418 801 q 114 913 114 853 z "},"Ÿ":{"ha":704,"x_min":-12,"x_max":699,"o":"m 699 856 q 609 671 699 807 q 431 426 519 535 l 431 282 q 457 10 431 97 q 371 -4 418 -4 q 301 14 319 -4 q 282 75 282 32 q 283 185 282 97 q 285 321 285 272 l 285 421 q -12 853 89 785 q 44 904 10 882 q 111 926 79 926 q 193 879 160 926 q 385 536 296 728 q 504 760 449 635 q 567 933 560 885 q 699 856 699 928 m 501 989 q 431 1017 460 989 q 401 1088 401 1044 q 432 1158 401 1129 q 504 1186 463 1186 q 574 1158 544 1186 q 603 1088 603 1129 q 572 1017 603 1046 q 501 989 542 989 m 238 989 q 167 1017 196 989 q 138 1088 138 1044 q 168 1158 138 1129 q 240 1186 199 1186 q 310 1158 281 1186 q 339 1088 339 1129 q 308 1017 339 1046 q 238 989 278 989 z "},"Ž":{"ha":783,"x_min":31,"x_max":760,"o":"m 219 1181 q 271 1243 219 1210 q 329 1184 294 1214 q 388 1139 364 1154 l 411 1122 q 569 1226 532 1226 q 626 1190 599 1226 q 410 989 524 1069 q 219 1181 219 1121 m 738 900 q 760 844 760 875 q 736 781 760 811 l 188 94 q 267 93 208 93 q 714 147 538 93 q 731 69 731 97 q 716 28 731 43 q 683 9 701 14 q 628 0 664 4 q 396 -8 540 -8 q 56 8 189 -8 q 31 78 31 42 q 65 165 31 122 l 575 817 q 442 821 521 821 q 85 783 240 821 q 71 853 71 822 q 111 913 71 899 q 292 926 171 926 q 738 900 543 926 z "},"ž":{"ha":650,"x_min":29,"x_max":608,"o":"m 129 913 q 181 975 129 942 q 239 916 204 946 q 297 869 274 886 l 321 854 q 479 958 442 958 q 536 922 508 958 q 319 721 433 801 q 129 913 129 853 m 608 561 q 582 496 608 522 q 196 97 440 347 q 563 143 424 97 q 576 72 576 107 q 563 31 576 47 q 534 10 550 15 q 492 1 518 6 q 308 -8 433 -8 q 51 10 156 -8 q 29 82 29 43 q 63 154 29 119 q 244 340 107 200 q 454 557 382 481 q 335 560 415 560 q 83 524 185 560 q 69 601 69 563 q 114 657 72 643 q 254 668 149 668 q 430 657 329 668 q 585 632 531 646 q 608 561 608 604 z "},"ƒ":{"ha":743,"x_min":11,"x_max":699,"o":"m 415 511 l 396 188 q 376 51 390 110 q 335 -58 363 -8 q 258 -135 307 -108 q 139 -162 208 -162 q 11 -82 11 -162 q 38 -31 11 -56 q 119 1 64 -7 q 168 -67 129 -67 q 228 -23 213 -67 q 251 125 244 21 l 276 513 q 194 506 254 511 q 186 539 186 528 q 251 583 186 582 l 281 583 q 301 719 286 660 q 345 830 315 778 q 428 910 375 882 q 554 938 481 938 q 663 914 626 938 q 699 856 699 890 q 669 806 699 831 q 583 772 639 781 q 524 840 561 840 q 478 826 497 840 q 450 795 460 813 q 434 743 440 778 q 426 686 428 708 q 422 619 425 664 l 421 592 q 596 610 528 599 q 608 565 608 585 q 585 518 608 529 q 515 507 563 507 q 415 511 467 507 z "},"ˆ":{"ha":413,"x_min":-3,"x_max":404,"o":"m 404 783 q 353 721 404 754 q 294 780 329 750 q 236 825 260 810 l 213 842 q 54 738 92 738 q -3 774 25 738 q 214 975 100 894 q 404 783 404 843 z "},"ˇ":{"ha":414,"x_min":31,"x_max":438,"o":"m 31 913 q 82 975 31 942 q 140 916 106 946 q 199 869 175 886 l 222 854 q 381 958 343 958 q 438 922 411 958 q 221 721 335 801 q 31 913 31 853 z "},"˘":{"ha":389,"x_min":0,"x_max":389,"o":"m 122 881 q 135 866 122 881 q 194 851 147 851 q 267 881 242 851 q 310 972 292 910 q 374 956 358 968 q 389 919 389 943 q 337 801 389 861 q 194 742 285 742 q 52 801 104 742 q 0 919 0 861 q 15 956 0 943 q 79 972 31 968 q 122 881 97 910 z "},"˙":{"ha":201,"x_min":0,"x_max":201,"o":"m 100 722 q 29 750 58 722 q 0 821 0 778 q 31 891 0 863 q 103 919 61 919 q 172 891 143 919 q 201 821 201 863 q 171 751 201 779 q 100 722 140 722 z "},"˚":{"ha":218,"x_min":-14,"x_max":231,"o":"m 110 722 q 20 756 54 722 q -14 846 -14 790 q 20 935 -14 901 q 110 969 54 969 q 197 935 164 969 q 231 846 231 901 q 197 756 231 790 q 110 722 164 722 m 172 839 q 156 900 172 876 q 110 924 139 924 q 62 904 79 924 q 44 851 44 885 q 62 792 44 815 q 110 768 79 768 q 156 787 139 768 q 172 839 172 806 z "},"˛":{"ha":622,"x_min":232,"x_max":521,"o":"m 432 21 l 508 1 q 392 -86 424 -42 q 361 -181 361 -131 q 401 -244 361 -244 q 474 -187 438 -244 q 521 -250 521 -217 q 483 -300 521 -279 q 389 -321 444 -321 q 278 -289 324 -321 q 232 -190 232 -257 q 283 -70 232 -119 q 432 21 335 -21 z "},"˜":{"ha":422,"x_min":0,"x_max":422,"o":"m 422 875 q 376 794 422 833 q 274 756 329 756 q 181 786 233 756 q 118 817 128 817 q 47 753 99 817 q 0 806 0 774 q 47 882 0 846 q 150 918 93 918 q 235 888 183 918 q 303 857 288 857 q 374 919 329 857 q 422 875 422 906 z "},"˝":{"ha":585,"x_min":8,"x_max":572,"o":"m 572 928 q 529 868 572 899 q 429 808 514 857 q 311 726 344 758 q 269 792 269 761 q 293 833 269 815 q 376 897 317 851 q 494 1010 436 943 q 572 928 572 965 m 311 928 q 268 868 311 899 q 168 808 253 857 q 50 726 83 758 q 8 792 8 761 q 32 833 8 815 q 115 897 56 851 q 233 1010 175 943 q 311 928 311 965 z "},"π":{"ha":736,"x_min":11,"x_max":713,"o":"m 11 588 q 15 619 11 607 q 42 643 19 632 q 106 654 64 654 q 249 653 122 654 q 497 651 375 651 q 697 682 617 651 q 713 625 713 654 q 690 573 713 588 q 618 558 668 558 l 571 558 q 563 240 563 383 l 563 199 q 590 15 563 76 q 514 -4 549 -4 q 443 15 463 -4 q 424 78 424 33 q 425 188 424 82 q 426 342 426 294 q 428 561 426 503 l 279 561 l 279 342 q 281 191 279 296 q 282 78 282 86 q 265 15 282 33 q 200 -4 247 -4 q 129 15 168 -4 q 157 240 157 76 q 147 558 157 242 q 32 526 89 551 q 11 588 11 569 z "},"–":{"ha":826,"x_min":42,"x_max":785,"o":"m 785 374 q 765 327 785 344 q 713 310 746 310 q 634 313 692 310 q 546 317 576 317 l 219 317 q 49 301 142 317 q 42 357 42 335 q 59 402 42 383 q 114 421 76 421 q 183 418 126 421 q 275 415 240 415 l 617 415 q 775 429 704 415 q 785 374 785 400 z "},"—":{"ha":1190,"x_min":42,"x_max":1149,"o":"m 1149 374 q 1129 327 1149 344 q 1076 310 1110 310 q 998 313 1056 310 q 910 317 940 317 l 219 317 q 49 301 142 317 q 42 357 42 335 q 59 402 42 383 q 114 421 76 421 q 183 418 126 421 q 275 415 240 415 l 981 415 q 1139 429 1068 415 q 1149 374 1149 400 z "},"‘":{"ha":286,"x_min":24,"x_max":261,"o":"m 150 851 q 218 776 150 789 q 232 724 232 750 q 203 667 232 690 q 132 644 174 644 q 56 678 88 644 q 24 781 24 711 q 81 949 24 872 q 218 1025 139 1025 q 261 972 261 1025 q 260 951 261 958 l 253 951 q 179 921 208 951 q 150 851 150 890 z "},"’":{"ha":379,"x_min":58,"x_max":296,"o":"m 169 821 q 101 896 169 883 q 88 949 88 922 q 117 1005 88 982 q 188 1028 146 1028 q 264 994 232 1028 q 296 892 296 961 q 238 724 296 800 q 101 647 181 647 q 58 700 58 647 q 60 721 58 714 l 67 721 q 140 751 111 721 q 169 821 169 782 z "},"‚":{"ha":326,"x_min":31,"x_max":268,"o":"m 142 -40 q 74 35 142 22 q 60 88 60 61 q 89 144 60 121 q 160 167 118 167 q 236 133 204 167 q 268 31 268 100 q 210 -137 268 -61 q 74 -214 153 -214 q 31 -161 31 -214 q 32 -140 31 -147 l 39 -140 q 113 -110 83 -140 q 142 -40 142 -79 z "},"“":{"ha":628,"x_min":35,"x_max":581,"o":"m 161 851 q 229 776 161 789 q 243 724 243 750 q 214 667 243 690 q 143 644 185 644 q 67 678 99 644 q 35 781 35 711 q 92 949 35 872 q 229 1025 150 1025 q 272 972 272 1025 q 271 951 272 958 l 264 951 q 190 921 219 951 q 161 851 161 890 m 469 851 q 538 776 469 789 q 551 724 551 750 q 522 667 551 690 q 451 644 493 644 q 375 678 407 644 q 343 781 343 711 q 401 949 343 872 q 538 1025 458 1025 q 581 972 581 1025 q 579 951 581 958 l 572 951 q 499 921 528 951 q 469 851 469 890 z "},"”":{"ha":688,"x_min":58,"x_max":604,"o":"m 478 821 q 410 896 478 883 q 396 949 396 922 q 425 1005 396 982 q 496 1028 454 1028 q 572 994 540 1028 q 604 892 604 961 q 547 724 604 800 q 410 647 489 647 q 367 700 367 647 q 368 721 367 714 l 375 721 q 449 751 419 721 q 478 821 478 782 m 169 821 q 101 896 169 883 q 88 949 88 922 q 117 1005 88 982 q 188 1028 146 1028 q 264 994 232 1028 q 296 892 296 961 q 238 724 296 800 q 101 647 181 647 q 58 700 58 647 q 60 721 58 714 l 67 721 q 140 751 111 721 q 169 821 169 782 z "},"„":{"ha":632,"x_min":31,"x_max":574,"o":"m 447 -40 q 379 35 447 22 q 365 88 365 61 q 394 144 365 121 q 465 167 424 167 q 542 133 510 167 q 574 31 574 100 q 516 -137 574 -61 q 379 -214 458 -214 q 336 -161 336 -214 q 338 -140 336 -147 l 344 -140 q 418 -110 389 -140 q 447 -40 447 -79 m 142 -40 q 74 35 142 22 q 60 88 60 61 q 89 144 60 121 q 160 167 118 167 q 236 133 204 167 q 268 31 268 100 q 210 -137 268 -61 q 74 -214 153 -214 q 31 -161 31 -214 q 32 -140 31 -147 l 39 -140 q 113 -110 83 -140 q 142 -40 142 -79 z "},"†":{"ha":649,"x_min":53,"x_max":594,"o":"m 53 635 q 128 708 53 708 q 193 701 151 708 q 261 693 235 693 q 243 924 261 732 q 325 936 300 936 q 406 924 351 936 q 397 822 404 903 q 388 692 389 742 q 576 731 468 696 q 594 661 594 693 q 572 599 594 615 q 494 583 549 583 q 447 588 485 583 q 388 592 408 592 q 401 181 390 375 q 411 -29 411 -12 q 389 -85 411 -54 q 344 -133 367 -115 l 324 -153 q 299 -132 314 -144 q 260 -86 285 -119 q 236 -29 236 -53 q 248 173 236 -21 q 261 593 260 367 q 60 575 168 589 q 53 635 53 611 z "},"‡":{"ha":651,"x_min":53,"x_max":597,"o":"m 407 393 q 398 296 406 363 q 389 190 390 229 q 590 208 493 196 q 597 149 597 172 q 522 75 597 75 q 458 83 500 75 q 389 90 417 90 q 392 17 389 53 q 399 -63 394 -18 q 407 -140 404 -108 q 326 -153 353 -153 q 246 -140 297 -153 q 255 -26 247 -106 q 264 92 263 54 q 75 53 182 88 q 56 122 56 94 q 78 184 56 168 q 156 200 101 200 q 201 197 161 200 q 264 192 240 193 q 253 293 264 226 q 243 393 243 360 q 252 495 243 429 q 263 593 261 561 q 60 575 132 586 q 53 635 53 611 q 129 708 53 708 q 189 701 151 708 q 261 693 226 694 q 243 924 260 760 q 326 936 297 936 q 406 924 353 936 q 397 817 404 893 q 388 692 389 740 q 576 731 469 696 q 596 661 596 689 q 573 599 596 615 q 496 583 550 583 q 446 587 482 583 q 388 592 410 590 q 398 491 389 557 q 407 393 407 425 z "},"•":{"ha":400,"x_min":29,"x_max":371,"o":"m 201 211 q 79 257 129 211 q 29 375 29 303 q 80 493 29 444 q 201 542 131 542 q 321 493 271 542 q 371 375 371 444 q 322 257 371 303 q 201 211 272 211 z "},"…":{"ha":1142,"x_min":50,"x_max":1094,"o":"m 574 -14 q 501 16 531 -14 q 472 92 472 46 q 502 167 472 136 q 574 199 532 199 q 644 167 615 199 q 674 92 674 136 q 644 16 674 46 q 574 -14 615 -14 m 994 -14 q 922 16 951 -14 q 893 92 893 46 q 923 167 893 136 q 994 199 953 199 q 1065 167 1036 199 q 1094 92 1094 136 q 1065 16 1094 46 q 994 -14 1036 -14 m 151 -14 q 79 16 108 -14 q 50 92 50 46 q 80 167 50 136 q 151 199 110 199 q 222 167 193 199 q 251 92 251 136 q 222 16 251 46 q 151 -14 193 -14 z "},"‰":{"ha":1663,"x_min":58,"x_max":1604,"o":"m 1389 -14 q 1231 50 1289 -14 q 1172 222 1172 114 q 1231 394 1172 331 q 1389 457 1289 457 q 1546 394 1488 457 q 1604 222 1604 331 q 1546 50 1604 114 q 1389 -14 1488 -14 m 1469 213 q 1448 322 1469 274 q 1389 369 1426 369 q 1328 331 1351 369 q 1304 236 1304 293 q 1326 124 1304 174 q 1388 75 1347 75 q 1447 114 1425 75 q 1469 213 1469 153 m 864 -14 q 706 50 764 -14 q 647 222 647 114 q 706 394 647 331 q 864 457 764 457 q 1021 394 963 457 q 1079 222 1079 331 q 1021 50 1079 114 q 864 -14 963 -14 m 944 213 q 923 322 944 274 q 864 369 901 369 q 803 331 826 369 q 779 236 779 293 q 801 124 779 174 q 863 75 822 75 q 922 114 900 75 q 944 213 944 153 m 329 -46 q 229 10 229 -31 q 240 43 229 26 l 649 690 q 814 967 740 835 q 911 908 911 960 q 901 878 911 893 l 494 231 q 329 -46 401 83 m 275 453 q 117 517 175 453 q 58 689 58 581 q 117 860 58 797 q 275 924 175 924 q 432 860 374 924 q 490 689 490 797 q 432 517 490 581 q 275 453 374 453 m 356 679 q 334 788 356 740 q 275 836 313 836 q 214 798 238 836 q 190 703 190 760 q 212 591 190 640 q 274 542 233 542 q 333 581 311 542 q 356 679 356 619 z "},"‹":{"ha":418,"x_min":47,"x_max":347,"o":"m 347 553 q 299 461 347 533 q 203 331 251 389 q 299 202 251 274 q 347 110 347 131 q 294 53 347 86 q 47 331 194 136 q 294 610 189 522 q 347 553 347 576 z "},"›":{"ha":418,"x_min":47,"x_max":347,"o":"m 47 108 q 95 200 47 128 q 192 331 143 272 q 95 459 143 388 q 47 551 47 531 q 100 608 47 575 q 347 331 200 525 q 100 51 206 139 q 47 108 47 85 z "},"⁄":{"ha":500,"x_min":-69,"x_max":569,"o":"m 19 -149 q -69 -104 -69 -149 q -53 -60 -69 -93 q 83 214 -37 -26 q 344 735 228 501 q 482 1028 436 919 q 569 982 569 1025 q 552 934 569 971 q 428 685 535 897 q 157 144 281 392 q 19 -149 61 -49 z "},"€":{"ha":743,"x_min":24,"x_max":738,"o":"m 256 493 l 256 461 q 257 418 256 435 l 411 418 q 650 426 560 418 l 657 394 q 597 343 657 343 l 268 343 q 375 156 299 224 q 526 88 451 88 q 683 143 610 88 q 738 64 738 110 q 535 -12 738 -12 q 357 20 439 -12 q 208 135 275 53 q 122 343 142 218 q 73 339 106 342 q 32 335 40 336 q 24 371 24 349 q 83 418 24 418 l 113 418 q 111 465 111 440 q 113 493 111 483 q 32 483 71 490 q 24 519 24 497 q 83 568 24 568 l 119 568 q 265 846 147 756 q 535 936 382 936 q 738 861 738 936 q 683 782 738 815 q 526 838 610 838 q 367 768 443 838 q 265 568 290 699 l 411 568 q 650 576 560 568 l 657 543 q 597 493 657 493 l 256 493 z "},"™":{"ha":1235,"x_min":118,"x_max":1157,"o":"m 183 907 l 353 907 q 528 914 464 907 q 533 871 533 893 q 471 821 533 821 l 388 821 l 388 571 q 407 408 388 468 q 333 394 357 394 q 278 410 292 394 q 264 458 264 425 l 264 821 q 128 815 176 821 q 118 858 118 839 q 134 894 118 885 q 183 907 150 904 m 1139 760 l 1139 557 q 1157 408 1139 469 q 1085 394 1115 394 q 1028 410 1043 394 q 1014 458 1014 425 q 1015 591 1014 543 q 1015 681 1015 639 q 929 407 954 499 q 878 396 903 396 q 810 429 825 396 q 757 574 792 467 q 719 686 722 681 l 719 557 q 738 408 719 469 q 672 394 696 394 q 616 410 631 394 q 601 458 601 425 q 602 585 601 490 q 603 765 603 681 q 589 899 603 833 q 667 913 640 913 q 749 865 722 913 q 869 574 817 746 q 992 865 919 733 q 1076 913 1018 913 q 1153 893 1107 913 q 1139 760 1139 836 z "},"Ω":{"ha":1167,"x_min":53,"x_max":1113,"o":"m 272 822 q 335 882 272 822 q 583 942 399 942 q 894 823 768 942 q 1021 515 1021 704 q 951 272 1021 376 q 765 103 882 168 l 976 103 q 1050 238 1007 146 q 1074 243 1064 243 q 1113 211 1113 243 q 1075 0 1113 188 l 753 0 q 651 92 651 0 q 654 139 651 108 q 863 501 863 263 q 788 748 861 653 q 583 843 715 843 q 378 748 451 843 q 303 501 304 653 q 511 139 303 263 q 515 92 515 118 q 413 0 515 0 l 92 0 q 53 211 53 172 q 93 243 53 243 q 115 238 101 243 q 189 103 167 133 l 401 103 q 144 515 144 246 q 272 822 144 703 z "},"∂":{"ha":731,"x_min":58,"x_max":660,"o":"m 375 469 q 251 404 301 469 q 201 239 201 339 q 230 128 201 171 q 317 85 258 85 q 458 181 408 85 q 519 411 508 276 q 375 469 432 469 m 279 832 q 144 807 222 832 q 119 875 119 843 q 221 936 119 936 q 551 807 442 936 q 660 450 660 678 q 640 283 660 363 q 582 136 621 204 q 474 27 543 68 q 317 -14 406 -14 q 125 65 192 -14 q 58 258 58 144 q 142 479 58 392 q 349 567 226 567 q 521 504 439 567 q 452 746 517 660 q 279 832 388 832 z "},"∆":{"ha":933,"x_min":47,"x_max":886,"o":"m 440 732 l 171 121 q 431 111 247 111 q 696 121 613 111 l 440 732 m 825 0 l 108 0 q 47 65 47 0 q 396 858 318 664 q 474 894 410 894 q 529 889 508 894 q 717 455 569 796 q 886 67 864 114 q 825 0 886 0 z "},"∏":{"ha":969,"x_min":24,"x_max":964,"o":"m 964 874 q 890 810 964 810 q 831 812 883 810 q 761 814 779 814 q 750 529 750 653 l 750 286 q 776 15 750 100 q 689 -4 735 -4 q 617 17 636 -4 q 599 85 599 38 q 600 185 599 92 q 601 325 601 279 l 601 818 q 351 817 417 818 l 351 325 q 353 185 351 279 q 354 85 354 92 q 337 17 354 38 q 271 -4 319 -4 q 190 15 229 -4 q 217 286 217 100 l 217 529 q 206 815 217 660 q 43 793 135 813 q 24 860 24 828 q 46 910 24 897 q 124 924 68 924 q 224 922 149 924 q 364 921 300 921 l 622 921 q 958 931 803 921 q 964 874 964 899 z "},"∑":{"ha":888,"x_min":29,"x_max":828,"o":"m 828 140 q 786 -86 828 99 l 72 -86 q 43 -78 54 -86 q 31 -61 32 -69 l 29 -51 l 315 399 l 44 863 q 59 899 44 885 q 97 914 74 914 l 725 914 q 758 724 758 763 q 722 690 758 690 q 696 696 707 690 q 635 811 650 789 l 247 811 l 457 446 q 461 426 461 438 q 460 417 461 422 q 458 406 460 411 q 453 394 456 400 q 447 381 451 389 q 440 368 443 374 q 431 352 436 363 q 421 335 425 342 q 408 317 417 329 q 396 296 400 304 l 231 33 l 692 33 q 765 168 725 78 q 792 174 776 174 q 828 140 828 174 z "},"−":{"ha":743,"x_min":82,"x_max":661,"o":"m 661 358 q 642 312 661 329 q 589 294 622 294 q 510 298 568 294 q 422 301 453 301 l 260 301 q 89 286 182 301 q 82 342 82 319 q 99 387 82 368 q 154 406 117 406 q 224 403 167 406 q 315 400 281 400 l 493 400 q 651 414 581 400 q 661 358 661 385 z "},"√":{"ha":779,"x_min":35,"x_max":729,"o":"m 243 681 l 463 207 l 617 1021 q 664 1025 644 1025 q 729 983 729 1025 q 539 11 729 975 q 515 -32 533 -21 q 458 -43 496 -43 l 432 -43 l 146 572 q 65 525 92 544 q 35 572 35 547 q 53 600 35 588 q 139 644 81 618 q 243 681 197 669 z "},"∞":{"ha":1031,"x_min":47,"x_max":983,"o":"m 881 369 q 847 450 881 421 q 763 479 813 479 q 579 368 694 479 q 761 250 689 250 q 847 283 814 250 q 881 369 881 317 m 269 250 q 457 358 346 250 q 261 479 356 479 q 181 444 213 479 q 150 360 150 410 q 185 283 150 315 q 269 250 219 250 m 267 576 q 397 540 339 576 q 518 438 456 503 q 594 507 565 483 q 673 553 622 531 q 775 576 724 576 q 924 517 865 576 q 983 367 983 457 q 917 211 983 268 q 760 154 851 154 q 641 185 697 154 q 514 288 585 217 q 261 154 381 154 q 109 215 171 154 q 47 364 47 275 q 110 516 47 456 q 267 576 172 576 z "},"∫":{"ha":458,"x_min":-36,"x_max":493,"o":"m 149 557 q 383 1028 149 1028 q 463 1004 432 1028 q 493 944 493 981 q 457 891 493 913 q 379 867 421 869 q 333 931 354 931 q 297 757 297 931 q 303 486 297 669 q 308 238 308 303 q 250 -129 308 -17 q 74 -242 192 -242 q -6 -219 24 -242 q -36 -160 -36 -196 q 0 -106 -36 -128 q 78 -81 36 -85 q 124 -146 103 -146 q 171 50 171 -146 q 160 288 171 113 q 149 557 149 464 z "},"≈":{"ha":743,"x_min":11,"x_max":731,"o":"m 731 238 q 676 147 731 193 q 544 101 622 101 q 413 128 481 101 q 292 181 346 154 q 210 207 239 207 q 157 191 182 207 q 120 160 132 175 q 90 117 108 144 q 32 144 53 126 q 11 178 11 161 q 66 267 11 221 q 199 313 121 313 q 328 286 264 313 q 443 233 392 260 q 533 207 494 207 q 585 223 561 207 q 622 255 610 239 q 653 299 635 271 q 710 270 689 288 q 731 238 731 253 m 731 508 q 676 418 731 464 q 544 372 622 372 q 413 399 481 372 q 292 451 346 425 q 210 478 239 478 q 157 462 182 478 q 120 431 132 446 q 90 388 108 415 q 32 415 53 397 q 11 449 11 432 q 66 538 11 492 q 199 583 121 583 q 328 557 264 583 q 443 504 392 531 q 533 478 494 478 q 585 494 561 478 q 622 526 610 510 q 653 569 635 542 q 710 541 689 558 q 731 508 731 524 z "},"≠":{"ha":743,"x_min":82,"x_max":661,"o":"m 661 225 q 641 178 661 200 q 601 157 621 157 q 474 163 567 157 q 301 168 381 168 q 254 85 286 142 q 206 -3 222 29 q 178 -62 189 -35 q 114 -19 114 -53 q 129 21 114 -7 l 207 163 q 89 154 122 157 q 82 210 82 189 q 101 258 82 239 q 154 276 121 276 q 213 274 172 276 q 267 271 254 271 l 361 440 q 89 426 222 440 q 82 481 82 461 q 99 528 82 507 q 154 549 117 549 q 261 544 175 549 q 417 539 347 539 q 462 620 432 567 q 511 710 492 674 q 543 776 531 747 q 607 733 607 768 q 605 719 607 726 q 594 696 603 711 q 577 665 586 681 q 548 613 568 649 q 508 540 528 578 q 653 551 590 543 q 661 497 661 526 q 641 449 661 469 q 590 429 621 429 q 450 438 514 429 q 409 363 442 422 q 356 267 376 303 q 654 278 547 267 q 661 225 661 258 z "},"≤":{"ha":743,"x_min":139,"x_max":586,"o":"m 586 81 q 569 32 586 51 q 526 13 553 13 q 463 15 507 13 q 369 19 392 19 q 153 7 275 19 q 147 53 147 33 q 162 100 147 79 q 207 121 176 121 q 275 118 219 121 q 367 115 339 115 q 579 126 488 115 q 586 81 586 106 m 139 418 l 439 654 q 482 675 463 675 q 528 655 506 675 q 560 607 550 635 q 290 418 361 467 q 327 392 300 411 q 384 353 354 374 q 440 315 414 332 q 561 233 525 261 q 529 185 551 206 q 482 164 507 164 q 433 186 463 164 l 139 418 z "},"≥":{"ha":743,"x_min":139,"x_max":586,"o":"m 139 81 q 146 126 139 106 q 358 115 238 115 q 450 118 386 115 q 518 121 506 121 q 563 100 549 121 q 578 53 578 79 q 572 7 578 33 q 356 19 450 19 q 263 15 333 19 q 199 13 218 13 q 156 32 172 13 q 139 81 139 51 m 286 654 l 586 419 q 449 313 557 397 q 286 185 340 229 q 243 164 258 164 q 196 185 218 164 q 164 233 174 206 l 435 418 l 165 607 q 197 655 175 635 q 243 675 219 675 q 286 654 263 675 z "},"◊":{"ha":708,"x_min":42,"x_max":667,"o":"m 557 476 l 354 856 l 153 476 l 354 97 l 557 476 m 42 476 l 283 924 q 354 953 299 953 q 425 924 408 953 l 667 476 l 422 25 q 354 0 408 0 q 283 31 300 0 l 42 476 z "},"":{"ha":743,"x_min":78,"x_max":664,"o":"m 224 590 q 336 472 224 508 l 336 706 q 224 590 224 696 m 533 217 q 502 292 533 265 q 413 335 471 318 l 413 85 q 498 122 463 85 q 533 217 533 158 m 78 106 q 101 149 78 131 q 174 189 125 167 q 336 90 219 107 l 336 354 q 264 373 292 364 q 200 400 236 382 q 143 440 164 418 q 107 501 122 463 q 92 588 92 539 q 158 735 92 682 q 335 803 224 789 q 329 904 333 865 q 361 908 350 908 q 413 871 413 908 l 413 808 q 574 776 501 808 q 646 690 646 743 q 540 621 646 628 q 413 703 506 688 l 413 451 q 489 429 463 438 q 554 403 515 421 q 613 365 593 385 q 649 314 633 346 q 664 242 664 282 q 599 67 664 133 q 414 -10 533 1 q 419 -89 415 -33 l 392 -92 q 336 -54 336 -92 l 336 -11 q 157 24 236 -7 q 78 106 78 56 z "},"":{"ha":740,"x_min":54,"x_max":686,"o":"m 600 78 q 557 32 600 78 q 369 -14 514 -14 q 140 78 225 -14 q 54 322 54 169 q 140 578 54 483 q 369 674 225 674 q 600 578 514 674 q 686 322 686 483 q 600 78 686 169 m 569 311 q 517 467 569 397 q 369 538 464 538 q 226 480 282 538 q 171 342 171 422 q 224 189 171 256 q 368 122 276 122 q 514 176 458 122 q 569 311 569 231 z "},"":{"ha":490,"x_min":54,"x_max":456,"o":"m 333 94 q 450 100 386 94 q 456 63 456 81 q 401 -3 456 -3 q 325 -1 392 -3 q 194 0 258 0 q 63 -1 110 0 q 56 40 56 24 q 136 99 56 99 l 190 99 q 192 199 190 115 q 193 350 193 283 q 189 565 193 469 q 61 546 85 551 q 54 589 54 576 q 107 649 54 640 q 265 674 254 674 q 313 662 292 674 q 335 622 335 650 q 332 569 335 614 q 326 456 329 524 q 324 326 324 389 l 324 276 q 333 94 324 154 z "},"":{"ha":678,"x_min":33,"x_max":654,"o":"m 572 496 q 481 304 572 407 q 214 104 390 201 q 490 115 376 108 q 638 133 579 118 q 654 75 654 104 q 554 1 654 6 q 310 -3 439 -3 q 97 0 214 -3 q 33 78 33 0 q 35 99 33 92 q 131 158 56 113 q 242 231 206 204 q 331 299 279 257 q 407 382 383 342 q 431 463 431 422 q 395 544 431 513 q 304 575 360 575 q 226 544 268 575 q 157 468 183 514 q 83 525 83 479 q 163 624 83 574 q 339 674 242 674 q 509 624 446 674 q 572 496 572 574 z "},"":{"ha":600,"x_min":14,"x_max":531,"o":"m 122 303 q 307 348 246 303 q 368 454 368 393 q 331 540 368 504 q 235 576 294 576 q 150 551 192 576 q 88 475 108 525 q 33 491 51 475 q 14 529 14 507 q 90 626 14 578 q 263 674 167 674 q 440 613 376 674 q 504 469 504 553 q 467 362 504 413 q 357 283 429 311 q 484 199 438 260 q 531 61 531 138 q 434 -143 531 -64 q 169 -222 338 -222 q 57 -202 96 -222 q 18 -151 18 -182 q 65 -93 18 -108 q 174 -122 99 -122 q 334 -75 276 -122 q 392 47 392 -28 q 333 170 392 125 q 169 215 274 215 q 133 226 144 215 q 121 278 121 238 l 122 303 z "},"":{"ha":703,"x_min":14,"x_max":668,"o":"m 394 503 q 149 175 267 350 q 261 172 224 172 q 392 176 329 172 q 394 503 392 325 m 401 657 q 489 674 425 674 q 533 671 503 674 q 531 617 533 668 q 524 477 528 567 q 521 292 521 388 l 521 181 q 657 204 624 189 q 668 144 668 174 q 640 86 668 96 q 522 72 611 75 q 549 -211 522 -124 q 481 -222 515 -222 q 408 -204 426 -222 q 389 -143 389 -186 q 392 71 389 -96 q 44 81 118 71 q 14 150 14 85 q 17 192 14 169 q 208 446 75 283 q 401 657 342 608 z "},"":{"ha":631,"x_min":36,"x_max":576,"o":"m 451 542 q 214 550 351 542 l 196 356 q 303 363 238 363 q 503 293 431 363 q 576 94 576 224 q 479 -135 576 -49 q 208 -222 382 -222 q 81 -202 125 -222 q 36 -151 36 -182 q 89 -89 36 -106 q 201 -126 124 -126 q 375 -71 313 -126 q 438 72 438 -15 q 383 213 438 157 q 213 269 328 269 q 93 263 143 269 q 79 326 79 276 q 97 661 79 344 q 382 658 139 658 q 540 669 483 658 q 554 614 554 644 q 451 542 554 542 z "},"":{"ha":689,"x_min":54,"x_max":635,"o":"m 343 -14 q 124 83 194 -14 q 54 333 54 181 q 85 528 54 432 q 174 703 117 624 q 322 833 231 783 q 522 882 413 882 q 582 836 582 882 q 572 778 582 806 q 521 783 542 783 q 338 717 415 783 q 227 558 261 651 q 193 360 193 464 q 351 83 193 83 q 457 141 421 83 q 493 281 493 199 q 456 422 493 374 q 358 471 418 471 q 292 454 325 471 q 276 500 276 475 q 299 542 276 526 q 393 567 338 567 q 576 492 517 567 q 635 306 635 418 q 558 83 635 179 q 343 -14 481 -14 z "},"":{"ha":593,"x_min":-21,"x_max":572,"o":"m 19 -168 q 249 163 135 -46 q 421 547 363 371 q 86 542 238 542 q -21 622 -21 542 q -7 669 -21 642 q 157 658 64 658 q 561 661 485 658 q 572 610 572 639 q 564 557 572 582 q 438 267 542 483 q 243 -126 335 50 q 128 -222 194 -222 q 19 -168 74 -222 z "},"":{"ha":711,"x_min":54,"x_max":657,"o":"m 228 685 q 240 628 228 653 q 279 584 251 604 q 326 554 307 564 q 386 526 346 544 q 481 685 481 581 q 444 756 481 728 q 354 783 407 783 q 265 756 301 783 q 228 685 228 728 m 238 128 q 260 106 238 128 q 354 83 282 83 q 470 128 426 83 q 514 235 514 174 q 501 303 514 274 q 456 355 488 332 q 400 390 424 378 q 325 424 376 401 q 194 235 194 360 q 238 128 194 174 m 54 224 q 67 316 54 276 q 111 384 81 356 q 167 428 142 413 q 238 467 192 443 q 89 690 89 554 q 167 828 89 775 q 354 881 244 881 q 542 828 464 881 q 619 690 619 775 q 468 489 619 556 q 657 232 657 403 q 579 58 657 131 q 356 -14 501 -14 q 132 56 210 -14 q 54 224 54 126 z "},"":{"ha":689,"x_min":54,"x_max":635,"o":"m 346 674 q 565 576 494 674 q 635 326 635 479 q 603 132 635 228 q 515 -44 572 36 q 367 -173 458 -124 q 167 -222 276 -222 q 107 -176 107 -222 q 117 -118 107 -146 q 168 -124 147 -124 q 351 -58 274 -124 q 462 102 428 8 q 496 300 496 196 q 338 576 496 576 q 232 519 268 576 q 196 379 196 461 q 233 238 196 286 q 331 189 271 189 q 397 206 364 189 q 413 160 413 185 q 390 118 413 133 q 296 93 351 93 q 113 167 172 93 q 54 354 54 242 q 131 577 54 481 q 346 674 208 674 z "},"":{"ha":743,"x_min":69,"x_max":672,"o":"m 360 89 l 360 554 q 219 322 219 499 q 360 89 219 142 m 672 542 q 579 465 672 485 q 436 568 515 561 l 436 78 q 578 178 511 85 q 647 147 622 168 q 672 103 672 126 q 631 37 672 65 q 538 -4 590 8 q 436 -18 486 -17 q 443 -135 439 -85 l 415 -137 q 374 -129 388 -137 q 360 -96 360 -121 l 360 -12 q 151 94 232 10 q 69 325 69 179 q 150 551 69 467 q 360 657 231 635 q 353 786 357 724 q 388 790 375 790 q 427 778 418 790 q 436 744 436 767 l 436 664 q 598 628 524 660 q 672 542 672 596 z "},"":{"ha":1133,"x_min":111,"x_max":1022,"o":"m 990 225 q 1006 163 1001 183 q 1022 8 1022 86 q 1013 -1 1022 -1 l 976 -1 q 968 7 968 -1 q 978 17 968 17 l 1004 17 q 979 190 1004 82 l 972 221 q 942 271 967 249 q 876 297 917 293 q 740 328 817 303 q 719 338 721 335 q 716 374 718 346 q 713 411 714 401 q 639 429 675 411 q 635 439 635 431 q 644 447 635 447 q 669 438 646 447 q 725 429 692 429 q 763 439 753 429 q 780 522 768 446 q 801 618 792 597 q 807 708 807 636 q 801 800 807 772 q 621 935 776 935 q 439 876 504 935 q 374 711 374 817 q 405 559 374 621 q 490 483 436 497 q 499 472 499 481 q 494 399 499 464 q 489 332 490 335 q 483 329 486 329 q 363 297 447 329 q 258 264 289 268 q 164 189 181 253 l 154 149 q 131 17 135 65 l 328 17 q 338 8 338 17 q 328 -1 338 -1 l 121 -1 q 111 8 111 -1 q 136 150 115 67 l 147 192 q 183 252 153 225 q 257 285 213 279 q 369 319 288 289 q 474 347 442 346 q 481 467 479 425 q 388 551 421 486 q 356 711 356 615 q 425 891 356 826 q 621 956 494 956 q 822 804 789 956 q 826 732 826 779 q 819 611 826 649 q 794 497 801 567 q 772 425 788 443 q 731 410 761 413 q 734 374 732 397 q 736 347 736 351 q 881 315 821 322 q 953 284 924 311 q 990 225 982 257 m 704 782 l 711 775 l 686 736 l 668 751 l 704 782 m 715 775 l 722 782 l 758 751 l 740 736 l 715 775 m 718 797 l 708 797 l 701 840 l 725 840 l 718 797 m 707 794 l 703 785 l 660 794 l 668 815 l 707 794 m 722 785 l 719 794 l 758 815 l 767 794 l 722 785 z "},"ﬀ":{"ha":896,"x_min":6,"x_max":938,"o":"m 546 556 l 261 557 l 261 282 q 288 10 261 99 q 217 -4 257 -4 q 137 13 158 -4 q 115 71 115 31 q 117 302 115 146 q 118 556 118 458 q 11 547 99 556 q 6 599 6 569 q 21 639 6 628 q 64 656 36 650 q 118 658 89 658 q 178 913 121 832 q 379 994 235 994 q 472 976 435 994 q 510 924 510 957 q 458 844 510 886 q 354 890 408 890 q 290 860 315 890 q 261 706 261 819 l 261 658 l 546 658 q 606 913 549 832 q 807 994 663 994 q 900 976 863 994 q 938 924 938 957 q 886 844 938 886 q 782 890 836 890 q 718 860 743 890 q 689 706 689 819 l 689 658 q 867 665 806 658 q 874 621 874 650 q 857 573 874 586 q 804 558 840 560 q 689 557 764 557 l 689 282 q 715 10 689 99 q 644 -4 685 -4 q 565 13 586 -4 q 543 71 543 31 q 544 302 543 146 q 546 556 546 458 z "},"ﬁ":{"ha":789,"x_min":6,"x_max":725,"o":"m 117 658 l 117 669 q 143 829 117 763 q 215 930 169 896 q 310 979 260 964 q 421 994 361 994 q 674 878 674 994 q 546 804 674 804 q 488 867 529 842 q 396 892 447 892 q 297 851 333 892 q 261 704 261 811 l 261 658 l 532 658 q 604 664 565 664 q 704 590 704 664 q 701 534 704 582 q 693 415 697 486 q 689 281 689 344 q 725 10 689 94 q 646 -6 690 -6 q 563 19 585 -6 q 542 104 542 44 q 543 212 542 126 q 544 343 544 297 q 540 556 544 458 l 261 557 l 261 283 q 288 11 261 100 q 217 -3 257 -3 q 137 15 158 -3 q 115 72 115 32 q 116 272 115 106 q 117 556 117 439 q 11 547 99 556 q 6 599 6 569 q 21 639 6 628 q 64 656 36 650 q 117 658 89 658 z "},"ﬂ":{"ha":831,"x_min":6,"x_max":760,"o":"m 639 1032 q 738 956 738 1032 q 734 891 738 947 q 726 729 731 835 q 722 494 722 624 q 728 151 722 228 q 760 13 733 75 q 678 -6 719 -6 q 597 20 618 -6 q 576 107 576 46 q 579 490 579 368 q 567 1025 579 911 q 639 1032 606 1032 m 261 706 l 261 658 q 439 665 378 658 q 446 621 446 650 q 429 573 446 586 q 376 558 413 560 q 261 557 336 557 l 261 282 q 288 10 261 99 q 217 -4 257 -4 q 137 13 158 -4 q 115 71 115 31 q 117 302 115 146 q 118 556 118 458 q 11 547 99 556 q 6 599 6 569 q 21 639 6 628 q 64 656 36 650 q 118 658 89 658 q 178 913 121 832 q 379 994 235 994 q 472 976 435 994 q 510 924 510 957 q 458 844 510 886 q 354 890 408 890 q 290 860 315 890 q 261 706 261 819 z "},"ﬃ":{"ha":1219,"x_min":6,"x_max":1154,"o":"m 546 556 l 261 557 l 261 282 q 288 10 261 99 q 217 -4 257 -4 q 137 13 158 -4 q 115 71 115 31 q 117 302 115 146 q 118 556 118 458 q 11 547 99 556 q 6 599 6 569 q 21 639 6 628 q 64 656 36 650 q 118 658 89 658 q 178 913 121 832 q 379 994 235 994 q 472 976 435 994 q 510 924 510 957 q 458 844 510 886 q 354 890 408 890 q 290 860 315 890 q 261 706 261 819 l 261 658 l 546 658 q 633 919 547 843 q 850 994 719 994 q 1103 878 1103 994 q 975 804 1103 804 q 917 867 958 842 q 825 892 876 892 q 726 851 763 892 q 690 704 690 811 l 690 658 l 961 658 q 1033 664 994 664 q 1133 590 1133 664 q 1129 534 1133 582 q 1122 415 1125 486 q 1118 281 1118 344 q 1154 10 1118 94 q 1075 -6 1119 -6 q 992 19 1014 -6 q 971 104 971 44 q 972 212 971 126 q 974 343 974 297 q 969 556 974 458 l 690 557 l 690 283 q 717 11 690 100 q 646 -3 686 -3 q 566 15 588 -3 q 544 72 544 32 q 545 272 544 106 q 546 556 546 439 z "},"ﬄ":{"ha":1258,"x_min":6,"x_max":1188,"o":"m 546 556 l 261 557 l 261 282 q 288 10 261 99 q 217 -4 257 -4 q 137 13 158 -4 q 115 71 115 31 q 117 302 115 146 q 118 556 118 458 q 11 547 99 556 q 6 599 6 569 q 21 639 6 628 q 64 656 36 650 q 118 658 89 658 q 178 913 121 832 q 379 994 235 994 q 472 976 435 994 q 510 924 510 957 q 458 844 510 886 q 354 890 408 890 q 290 860 315 890 q 261 706 261 819 l 261 658 l 546 658 q 606 913 549 832 q 807 994 663 994 q 900 976 863 994 q 938 924 938 957 q 886 844 938 886 q 782 890 836 890 q 718 860 743 890 q 689 706 689 819 l 689 658 q 867 665 806 658 q 874 621 874 650 q 857 573 874 586 q 804 558 840 560 q 689 557 764 557 l 689 282 q 715 10 689 99 q 644 -4 685 -4 q 565 13 586 -4 q 543 71 543 31 q 544 302 543 146 q 546 556 546 458 m 1067 1032 q 1165 956 1165 1032 q 1162 891 1165 947 q 1154 729 1158 835 q 1150 494 1150 624 q 1156 151 1150 228 q 1188 13 1161 75 q 1106 -6 1147 -6 q 1025 20 1046 -6 q 1004 107 1004 46 q 1007 490 1007 368 q 994 1025 1007 911 q 1067 1032 1033 1032 z "},"ﬆ":{"ha":1143,"x_min":47,"x_max":1126,"o":"m 443 474 q 289 564 415 564 q 226 544 253 564 q 200 489 200 524 q 237 424 200 447 q 326 389 274 400 q 432 363 379 378 q 522 306 485 347 q 558 194 558 264 q 478 40 558 93 q 290 -14 399 -14 q 121 18 194 -14 q 47 97 47 50 q 133 193 47 157 q 314 96 175 96 q 419 167 419 96 q 383 230 419 208 q 293 262 346 251 q 188 289 240 272 q 98 350 135 306 q 61 469 61 394 q 141 622 61 569 q 329 674 221 674 q 456 649 389 674 q 443 719 443 686 q 513 862 443 810 q 676 914 582 914 q 837 870 761 914 q 913 760 913 826 q 910 658 913 742 q 1118 667 1060 658 q 1126 624 1126 651 q 1110 573 1126 586 q 1057 558 1093 560 q 907 557 1015 557 q 904 275 904 426 q 907 201 904 231 q 919 143 910 172 q 949 99 929 114 q 999 85 968 85 q 1088 133 1042 85 q 1124 65 1124 93 q 1083 6 1124 25 q 990 -14 1042 -14 q 758 239 758 -14 q 759 420 758 304 q 760 558 760 536 q 647 547 694 554 q 642 593 642 563 q 658 642 642 629 q 710 658 674 654 q 758 660 722 660 q 749 792 756 736 q 657 836 740 836 q 557 793 603 836 q 511 682 511 750 q 528 613 511 647 q 546 556 546 578 q 518 506 546 528 q 443 474 490 485 z "}}}
